<svg width="359" height="301" viewBox="0 0 359 301" fill="none" xmlns="http://www.w3.org/2000/svg">
<path d="M217.943 76.849L0 55.2227V274.75L217.943 301.001V76.849Z" fill="url(#paint0_linear_499_892)"/>
<path d="M217.943 301.001V76.8489L359 16.7305V236.938L217.943 301.001Z" fill="url(#paint1_linear_499_892)"/>
<path d="M217.943 76.8482L0 55.2219L156.952 0L359 16.7298L217.943 76.8482Z" fill="url(#paint2_linear_499_892)"/>
<g filter="url(#filter0_d_499_892)">
<path d="M131.401 65.5584L266.217 8.97637L221.004 5.16797L83.4795 59.5738V124.317L131.401 127.989V65.5584Z" fill="#EEDCCD"/>
</g>
<path d="M45.8124 174.986L39.9157 174.27L38.7642 177.29L36.1434 176.972L41.3849 163.688L44.4425 164.059L49.684 178.616L46.964 178.285L45.8124 174.986ZM44.9984 172.647L42.874 166.469L40.7298 172.128L44.9984 172.647ZM57.7098 168.91C58.7554 169.037 59.5959 169.452 60.2312 170.156C60.8798 170.848 61.2041 171.701 61.2041 172.714V180.014L58.5833 179.696V173.896C58.5833 172.989 58.4444 172.326 58.1664 171.905C57.9017 171.473 57.4583 171.219 56.8362 171.144C56.1479 171.06 55.4199 171.359 54.6522 172.039V179.219L52.0315 178.901V170.781L51.5947 168.408L53.997 168.699L54.3742 170.085C54.9434 169.594 55.4927 169.261 56.0221 169.085C56.5516 168.896 57.1141 168.838 57.7098 168.91ZM71.0646 181.211L70.8065 179.92C69.8668 180.806 68.7351 181.169 67.4115 181.008C66.3658 180.881 65.5121 180.504 64.8503 179.877C64.2017 179.252 63.8774 178.492 63.8774 177.599C63.8774 176.439 64.301 175.59 65.1481 175.053C66.0084 174.504 67.246 174.328 68.8608 174.524C69.4432 174.595 70.0256 174.692 70.608 174.816V174.436C70.608 173.849 70.4425 173.396 70.1116 173.076C69.7807 172.742 69.2579 172.532 68.5432 172.445C67.8416 172.36 67.1865 172.401 66.5776 172.567C65.982 172.721 65.3334 173.016 64.6319 173.45V171.09C65.2407 170.698 65.8761 170.435 66.5379 170.302C67.1997 170.169 67.9277 170.151 68.7219 170.247C70.1911 170.425 71.3095 170.881 72.0772 171.614C72.8581 172.336 73.2486 173.303 73.2486 174.517V179.157L73.6854 181.53L71.0646 181.211ZM66.4982 177.717C66.4982 178.49 66.935 178.93 67.8086 179.036C68.3115 179.097 68.788 179.055 69.2381 178.91C69.6881 178.751 70.1447 178.473 70.608 178.076V176.656L68.702 176.425C67.9343 176.331 67.3718 176.376 67.0144 176.56C66.6703 176.745 66.4982 177.13 66.4982 177.717ZM75.9503 166.725L78.5711 167.043V182.123L75.9503 181.805V166.725ZM91.0648 173.2L85.1284 187.559L82.6466 187.258L84.3342 183.163L80.145 171.874L82.8055 172.197L85.6843 180.187L88.4441 172.882L91.0648 173.2ZM100.745 182.775V184.815L91.8901 183.74V181.9L96.8934 175.947L92.3269 175.393V173.353L100.328 174.324V176.164L95.3249 182.117L100.745 182.775ZM104.25 173.241C103.8 173.186 103.416 172.986 103.098 172.641C102.781 172.296 102.622 171.876 102.622 171.383C102.622 170.89 102.781 170.509 103.098 170.241C103.416 169.973 103.8 169.866 104.25 169.921C104.7 169.975 105.084 170.175 105.402 170.52C105.719 170.866 105.878 171.285 105.878 171.778C105.878 172.272 105.719 172.652 105.402 172.92C105.084 173.189 104.7 173.295 104.25 173.241ZM105.56 174.96V185.4L102.94 185.082V174.662L105.56 174.96ZM114.48 175.803C115.526 175.93 116.366 176.345 117.002 177.049C117.65 177.741 117.975 178.594 117.975 179.607V186.907L115.354 186.589V180.789C115.354 179.882 115.215 179.219 114.937 178.798C114.672 178.366 114.229 178.112 113.607 178.037C112.918 177.953 112.19 178.251 111.423 178.932V186.112L108.802 185.793V177.673L108.365 175.3L110.768 175.592L111.145 176.978C111.714 176.487 112.263 176.154 112.793 175.978C113.322 175.789 113.885 175.73 114.48 175.803ZM131.091 178.06L130.655 180.307V188.447C130.655 190.033 130.191 191.184 129.265 191.898C128.338 192.625 127.074 192.892 125.473 192.697C124.625 192.595 123.864 192.389 123.189 192.08C122.514 191.772 121.866 191.386 121.244 190.924V188.444C122.488 189.555 123.825 190.197 125.254 190.371C127.107 190.596 128.034 189.848 128.034 188.128V187.308C127.213 187.662 126.313 187.779 125.334 187.661C123.944 187.492 122.845 186.898 122.038 185.88C121.244 184.851 120.847 183.522 120.847 181.896C120.847 180.242 121.264 178.993 122.097 178.148C122.944 177.304 124.089 176.969 125.532 177.145C125.995 177.201 126.439 177.308 126.862 177.466C127.286 177.611 127.789 177.839 128.371 178.149L128.471 177.741L131.091 178.06ZM125.433 185.393C126.267 185.494 127.134 185.332 128.034 184.908V179.908C127.69 179.76 127.346 179.651 127.001 179.583C126.67 179.516 126.267 179.454 125.79 179.396C125.023 179.303 124.467 179.482 124.123 179.933C123.778 180.385 123.606 181.151 123.606 182.231C123.606 183.257 123.752 184.022 124.043 184.524C124.334 185.026 124.798 185.315 125.433 185.393ZM148.63 180.189L142.694 194.548L140.212 194.247L141.9 190.152L137.711 178.863L140.371 179.186L143.25 187.176L146.01 179.871L148.63 180.189ZM155.074 191.651C154.029 191.524 153.109 191.193 152.315 190.656C151.521 190.107 150.905 189.392 150.468 188.512C150.045 187.634 149.833 186.648 149.833 185.555C149.833 184.462 150.045 183.527 150.468 182.752C150.905 181.979 151.521 181.42 152.315 181.076C153.109 180.719 154.029 180.604 155.074 180.731C156.12 180.858 157.04 181.197 157.834 181.747C158.628 182.283 159.237 182.99 159.661 183.868C160.098 184.748 160.316 185.735 160.316 186.828C160.316 187.921 160.098 188.855 159.661 189.628C159.237 190.404 158.628 190.97 157.834 191.327C157.04 191.67 156.12 191.778 155.074 191.651ZM155.074 189.471C155.855 189.566 156.464 189.36 156.901 188.853C157.338 188.333 157.556 187.546 157.556 186.493C157.556 185.426 157.338 184.586 156.901 183.973C156.464 183.36 155.855 183.006 155.074 182.911C154.293 182.817 153.685 183.023 153.248 183.53C152.811 184.037 152.593 184.823 152.593 185.89C152.593 186.943 152.811 187.783 153.248 188.41C153.685 189.023 154.293 189.377 155.074 189.471ZM170.315 193.262L169.938 191.856C169.263 192.374 168.668 192.722 168.151 192.899C167.648 193.065 167.073 193.108 166.424 193.029C165.802 192.954 165.233 192.738 164.717 192.382C164.214 192.028 163.817 191.58 163.525 191.038C163.247 190.484 163.108 189.887 163.108 189.247V181.947L165.729 182.265V188.065C165.729 188.905 165.862 189.554 166.126 190.013C166.391 190.472 166.775 190.732 167.278 190.793C167.701 190.845 168.098 190.799 168.469 190.658C168.84 190.516 169.237 190.264 169.66 189.902V182.742L172.281 183.061V191.181L172.718 193.554L170.315 193.262ZM181.407 183.929V186.529L181.069 186.488C180.037 186.362 179.197 186.547 178.548 187.041V194.261L175.927 193.943V185.823L175.49 183.45L178.111 183.768L178.369 185.18C178.806 184.633 179.203 184.261 179.561 184.064C179.918 183.868 180.315 183.796 180.752 183.849L181.407 183.929ZM85.7459 209.994L85.3488 208.546C84.8723 209.008 84.3164 209.34 83.6811 209.543C83.059 209.748 82.4038 209.808 81.7155 209.725C80.4978 209.577 79.5315 208.979 78.8168 207.933C78.1153 206.888 77.7645 205.538 77.7645 203.885C77.7645 202.138 78.1682 200.827 78.9756 199.952C79.7963 199.078 80.9478 198.731 82.4302 198.911C83.3832 199.027 84.2701 199.341 85.0907 199.854V194.834L87.7115 195.153V207.913L88.1483 210.286L85.7459 209.994ZM80.5242 204.18C80.5242 205.22 80.6831 206.039 81.0007 206.638C81.3184 207.236 81.7883 207.573 82.4104 207.649C83.284 207.755 84.1774 207.424 85.0907 206.654V201.714C84.323 201.421 83.6215 201.236 82.9862 201.159C82.1391 201.056 81.517 201.254 81.1199 201.752C80.7228 202.237 80.5242 203.047 80.5242 204.18ZM97.4529 211.415L97.1948 210.124C96.255 211.01 95.1233 211.373 93.7997 211.212C92.7541 211.085 91.9003 210.708 91.2385 210.081C90.59 209.455 90.2657 208.696 90.2657 207.803C90.2657 206.643 90.6892 205.794 91.5363 205.257C92.3967 204.708 93.6343 204.532 95.2491 204.728C95.8315 204.799 96.4139 204.896 96.9962 205.02V204.64C96.9962 204.053 96.8308 203.6 96.4999 203.28C96.169 202.946 95.6462 202.736 94.9314 202.649C94.2299 202.564 93.5747 202.605 92.9658 202.771C92.3702 202.925 91.7216 203.22 91.0201 203.654V201.294C91.629 200.902 92.2643 200.639 92.9261 200.506C93.5879 200.373 94.3159 200.355 95.1101 200.451C96.5793 200.629 97.6978 201.085 98.4655 201.818C99.2464 202.54 99.6369 203.507 99.6369 204.721V209.361L100.074 211.734L97.4529 211.415ZM92.8864 207.921C92.8864 208.694 93.3232 209.134 94.1968 209.24C94.6998 209.301 95.1763 209.259 95.6263 209.114C96.0763 208.955 96.533 208.677 96.9962 208.28V206.86L95.0902 206.629C94.3225 206.535 93.76 206.58 93.4026 206.764C93.0585 206.949 92.8864 207.334 92.8864 207.921ZM105.535 201.957L107.918 202.246V204.206L105.535 203.917V208.957C105.535 209.97 105.919 210.523 106.687 210.616C107.044 210.66 107.461 210.584 107.937 210.388V212.568C107.607 212.648 107.296 212.697 107.004 212.715C106.726 212.748 106.409 212.743 106.051 212.699C103.96 212.445 102.914 211.092 102.914 208.638V203.598L101.405 203.415V201.455L102.914 201.638V198.838L105.535 198.237V201.957ZM116.919 213.779L116.661 212.488C115.721 213.373 114.59 213.736 113.266 213.575C112.22 213.448 111.367 213.071 110.705 212.444C110.056 211.819 109.732 211.06 109.732 210.166C109.732 209.006 110.156 208.158 111.003 207.621C111.863 207.072 113.101 206.895 114.715 207.091C115.298 207.162 115.88 207.259 116.463 207.383V207.003C116.463 206.417 116.297 205.963 115.966 205.643C115.635 205.31 115.113 205.1 114.398 205.013C113.696 204.928 113.041 204.968 112.432 205.134C111.837 205.288 111.188 205.583 110.487 206.018V203.658C111.095 203.265 111.731 203.002 112.393 202.869C113.054 202.736 113.782 202.718 114.577 202.814C116.046 202.993 117.164 203.449 117.932 204.182C118.713 204.903 119.103 205.871 119.103 207.084V211.724L119.54 214.097L116.919 213.779ZM112.353 210.284C112.353 211.058 112.79 211.497 113.663 211.604C114.166 211.665 114.643 211.622 115.093 211.477C115.543 211.318 115.999 211.041 116.463 210.643V209.223L114.557 208.992C113.789 208.899 113.226 208.944 112.869 209.127C112.525 209.312 112.353 209.698 112.353 210.284ZM128.481 215.423C127.978 215.362 127.555 215.144 127.211 214.768C126.867 214.393 126.695 213.932 126.695 213.386C126.695 212.839 126.867 212.42 127.211 212.128C127.555 211.837 127.978 211.722 128.481 211.783C128.984 211.844 129.408 212.062 129.752 212.437C130.096 212.812 130.268 213.273 130.268 213.82C130.268 214.366 130.096 214.785 129.752 215.077C129.408 215.369 128.984 215.484 128.481 215.423ZM133.639 216.049C133.136 215.988 132.712 215.77 132.368 215.395C132.024 215.019 131.852 214.559 131.852 214.012C131.852 213.465 132.024 213.046 132.368 212.755C132.712 212.463 133.136 212.348 133.639 212.409C134.142 212.47 134.565 212.688 134.91 213.063C135.254 213.438 135.426 213.899 135.426 214.446C135.426 214.992 135.254 215.412 134.91 215.703C134.565 215.995 134.142 216.11 133.639 216.049ZM138.796 216.675C138.293 216.614 137.87 216.396 137.526 216.021C137.182 215.646 137.009 215.185 137.009 214.638C137.009 214.091 137.182 213.672 137.526 213.381C137.87 213.089 138.293 212.974 138.796 213.035C139.299 213.096 139.723 213.314 140.067 213.689C140.411 214.064 140.583 214.525 140.583 215.072C140.583 215.619 140.411 216.038 140.067 216.329C139.723 216.621 139.299 216.736 138.796 216.675Z" fill="black"/>
<defs>
<filter id="filter0_d_499_892" x="83.4795" y="5.16797" width="186.738" height="126.82" filterUnits="userSpaceOnUse" color-interpolation-filters="sRGB">
<feFlood flood-opacity="0" result="BackgroundImageFix"/>
<feColorMatrix in="SourceAlpha" type="matrix" values="0 0 0 0 0 0 0 0 0 0 0 0 0 0 0 0 0 0 127 0" result="hardAlpha"/>
<feOffset dx="2" dy="2"/>
<feGaussianBlur stdDeviation="1"/>
<feComposite in2="hardAlpha" operator="out"/>
<feColorMatrix type="matrix" values="0 0 0 0 0 0 0 0 0 0 0 0 0 0 0 0 0 0 0.25 0"/>
<feBlend mode="normal" in2="BackgroundImageFix" result="effect1_dropShadow_499_892"/>
<feBlend mode="normal" in="SourceGraphic" in2="effect1_dropShadow_499_892" result="shape"/>
</filter>
<linearGradient id="paint0_linear_499_892" x1="217.943" y1="81.7455" x2="-24.5467" y2="255.238" gradientUnits="userSpaceOnUse">
<stop stop-color="#E5C39F"/>
<stop offset="1" stop-color="#E0BA8D"/>
</linearGradient>
<linearGradient id="paint1_linear_499_892" x1="217.943" y1="73.8565" x2="379.438" y2="215.058" gradientUnits="userSpaceOnUse">
<stop stop-color="#D39C6E"/>
<stop offset="1" stop-color="#D79970"/>
</linearGradient>
<linearGradient id="paint2_linear_499_892" x1="158.836" y1="-4.6245" x2="224.455" y2="67.6175" gradientUnits="userSpaceOnUse">
<stop stop-color="#EADCD3"/>
<stop offset="1" stop-color="#EDCFB5"/>
</linearGradient>
</defs>
</svg>
