<svg width="62" height="62" viewBox="0 0 62 62" fill="none" xmlns="http://www.w3.org/2000/svg">
<circle cx="31" cy="31" r="31" fill="#E0E0E0"/>
<path d="M31.536 19.536C30.544 19.536 29.744 19.232 29.136 18.624C28.528 17.984 28.224 17.168 28.224 16.176C28.224 15.184 28.528 14.384 29.136 13.776C29.744 13.168 30.544 12.864 31.536 12.864C32.496 12.864 33.296 13.168 33.936 13.776C34.576 14.384 34.896 15.184 34.896 16.176C34.896 17.168 34.576 17.984 33.936 18.624C33.296 19.232 32.496 19.536 31.536 19.536ZM25.104 25.008V23.664H34.32V43.968C34.32 45.056 34.368 45.712 34.464 45.936C34.56 46.128 34.864 46.256 35.376 46.32L38.016 46.656V48H25.104V46.656L27.744 46.32C28.256 46.256 28.56 46.128 28.656 45.936C28.752 45.712 28.8 45.056 28.8 43.968V27.696C28.8 26.608 28.752 25.968 28.656 25.776C28.56 25.552 28.256 25.408 27.744 25.344L25.104 25.008Z" fill="white"/>
</svg>
