<svg width="556" height="303" viewBox="0 0 556 303" fill="none" xmlns="http://www.w3.org/2000/svg">
<path d="M433.118 256.271V168.701L277.118 118.432L277.618 302.432L433.118 256.271Z" fill="#CAA37C"/>
<path d="M326.092 0L277 73.6622L439.618 90.932L485.693 9.18058L326.092 0Z" fill="#F1D1AB"/>
<path d="M440.118 90.775L277.118 73.432V118.432L289.399 118.432L440.118 90.775Z" fill="#BB946D"/>
<g filter="url(#filter0_d_184_31)">
<path d="M525.118 147.322L439.618 90.432L277.118 117.883L366.425 183.432L525.118 147.322Z" fill="#E8C295"/>
</g>
<path d="M122 256.271V168.701L278 118.432L277.618 302.432L122 256.271Z" fill="#CAA37C"/>
<path d="M229.026 0L278.118 73.6622L115.5 90.932L69.4251 9.18058L229.026 0Z" fill="#F1D1AB"/>
<path d="M115 90.775L278 73.432V118.432L265.719 118.432L115 90.775Z" fill="#BB946D"/>
<g filter="url(#filter1_d_184_31)">
<path d="M30 147.322L115.5 90.432L278 117.883L188.693 183.432L30 147.322Z" fill="#E8C295"/>
</g>
<defs>
<filter id="filter0_d_184_31" x="167.118" y="50.432" width="388" height="233" filterUnits="userSpaceOnUse" color-interpolation-filters="sRGB">
<feFlood flood-opacity="0" result="BackgroundImageFix"/>
<feColorMatrix in="SourceAlpha" type="matrix" values="0 0 0 0 0 0 0 0 0 0 0 0 0 0 0 0 0 0 127 0" result="hardAlpha"/>
<feOffset dx="-40" dy="30"/>
<feGaussianBlur stdDeviation="35"/>
<feComposite in2="hardAlpha" operator="out"/>
<feColorMatrix type="matrix" values="0 0 0 0 0 0 0 0 0 0 0 0 0 0 0 0 0 0 0.1 0"/>
<feBlend mode="normal" in2="BackgroundImageFix" result="effect1_dropShadow_184_31"/>
<feBlend mode="normal" in="SourceGraphic" in2="effect1_dropShadow_184_31" result="shape"/>
</filter>
<filter id="filter1_d_184_31" x="0" y="50.432" width="388" height="233" filterUnits="userSpaceOnUse" color-interpolation-filters="sRGB">
<feFlood flood-opacity="0" result="BackgroundImageFix"/>
<feColorMatrix in="SourceAlpha" type="matrix" values="0 0 0 0 0 0 0 0 0 0 0 0 0 0 0 0 0 0 127 0" result="hardAlpha"/>
<feOffset dx="40" dy="30"/>
<feGaussianBlur stdDeviation="35"/>
<feComposite in2="hardAlpha" operator="out"/>
<feColorMatrix type="matrix" values="0 0 0 0 0 0 0 0 0 0 0 0 0 0 0 0 0 0 0.1 0"/>
<feBlend mode="normal" in2="BackgroundImageFix" result="effect1_dropShadow_184_31"/>
<feBlend mode="normal" in="SourceGraphic" in2="effect1_dropShadow_184_31" result="shape"/>
</filter>
</defs>
</svg>
