<svg width="554" height="787" viewBox="0 0 554 787" fill="none" xmlns="http://www.w3.org/2000/svg">
<g clip-path="url(#clip0_1624_765)">
<path d="M399.291 783.738L387.761 1024.89C387.761 1024.89 355.82 1034.08 327.736 1025.9L323.685 783.738H399.291Z" fill="#302624"/>
<path d="M317.295 561.429C311.842 537.408 326.894 513.515 350.915 508.062C374.936 502.609 398.83 517.661 404.283 541.682C409.736 565.703 394.683 589.596 370.662 595.049C346.642 600.502 322.748 585.45 317.295 561.429Z" fill="#302624"/>
<path d="M323.684 783.726L316.166 551.609H405.406L399.291 783.726H323.684Z" fill="#302624"/>
<path d="M324.665 792.443C319.884 772.108 332.493 751.748 352.828 746.968C373.162 742.187 393.522 754.796 398.303 775.13C403.084 795.465 390.475 815.825 370.14 820.605C349.806 825.386 329.446 812.777 324.665 792.443Z" fill="#302624"/>
<path d="M279.086 785.571L246.522 1024.78C246.522 1024.78 213.919 1031.13 186.613 1020.57L203.752 778.988L279.086 785.571Z" fill="#302624"/>
<path d="M223.08 546.48C220.236 570.942 237.804 593.106 262.266 595.911C286.728 598.754 308.892 581.187 311.696 556.725C314.54 532.262 296.972 510.099 272.51 507.294C248.048 504.451 225.884 522.018 223.08 546.48Z" fill="#302624"/>
<path d="M203.873 777.935L223.077 546.48L311.693 556.725L278.973 786.622L203.873 777.935Z" fill="#302624"/>
<path d="M203.757 778.984C201.926 799.785 217.312 818.131 238.113 819.962C258.913 821.793 277.26 806.407 279.09 785.606C280.921 764.806 265.535 746.459 244.734 744.628C223.934 742.798 205.587 758.184 203.757 778.984Z" fill="#302624"/>
<path d="M222.611 506.977H267.718C267.718 506.977 267.99 506.977 268.107 506.977H360.619C360.619 506.977 360.736 506.977 360.814 506.977C360.892 506.977 360.931 506.977 361.009 506.977H405.453V551.889C405.297 576.39 385.393 596.216 360.853 596.216H267.445C265.731 596.216 264.056 596.138 262.303 595.905C239.672 593.295 222.961 574.13 222.845 551.889H222.65V506.977H222.611Z" fill="#302624"/>
<path d="M222.611 506.977H267.718C267.718 506.977 267.99 506.977 268.107 506.977H360.619C360.619 506.977 360.736 506.977 360.814 506.977C360.892 506.977 360.931 506.977 361.009 506.977H405.453V551.889C405.297 576.39 385.393 596.216 360.853 596.216H267.445C265.731 596.216 264.056 596.138 262.303 595.905C239.672 593.295 222.961 574.13 222.845 551.889H222.65V506.977H222.611Z" fill="#302624"/>
<path d="M197.173 298.149C193.099 281.76 203.082 265.172 219.471 261.098C235.859 257.024 252.448 267.007 256.522 283.396C260.596 299.785 250.613 316.373 234.224 320.447C217.835 324.521 201.247 314.538 197.173 298.149Z" fill="#FBC0A4"/>
<path d="M394.031 305.196C390.195 288.75 400.417 272.308 416.863 268.472C433.309 264.635 449.751 274.858 453.587 291.304C457.423 307.75 447.201 324.192 430.755 328.028C414.309 331.864 397.867 321.642 394.031 305.196Z" fill="#FBC0A4"/>
<path d="M418.096 316.022L397.997 415.273L413.344 540.855C413.344 540.855 316.158 577.704 216.284 546.737C216.284 546.737 221.504 401.717 230.852 288.016L205.806 268.656C227.814 248.245 305.056 221.212 326.714 224.64C360.797 230.015 445.402 269.981 447.934 279.563L418.096 316.061V316.022Z" fill="#FBC0A4"/>
<path d="M226.847 325.274C239.039 325.274 250.062 319.041 256.373 308.641C266.228 292.359 260.969 271.13 244.726 261.314C239.35 258.042 233.196 256.328 226.925 256.328C214.733 256.328 203.709 262.56 197.399 272.961C192.647 280.829 191.205 290.1 193.426 299.059C195.646 308.018 201.177 315.536 209.046 320.327C214.421 323.599 220.575 325.313 226.847 325.313V325.274Z" fill="#3E3533"/>
<path d="M423.795 332.789C404.756 332.789 389.322 317.355 389.322 298.317C389.322 279.278 404.756 263.844 423.795 263.844C442.834 263.844 458.268 279.278 458.268 298.317C458.268 317.355 442.834 332.789 423.795 332.789Z" fill="#F8E8D8"/>
<path d="M301.8 563.035C365.176 563.035 412.776 545.273 414.762 544.494L417.606 543.403L401.947 415.445L421.696 317.752L452.195 280.475L451.689 278.566C448.261 265.634 358.203 225.708 327.314 220.8C325.873 220.566 324.198 220.449 322.367 220.449C295.646 220.449 224.714 245.768 203.134 265.79L199.94 269.257L226.778 289.823C217.663 402.006 212.444 545.195 212.366 546.636L212.249 549.596L215.092 550.492C241.97 558.828 271.106 563.074 301.722 563.074L301.8 563.035Z" fill="#3E3533"/>
<path d="M288.363 226.845C288.363 226.845 273.132 226.182 270.367 227.896C267.601 229.61 260.668 249.632 259.265 252.787C257.863 255.942 277.807 274.561 277.807 274.561C277.807 274.561 261.369 301.555 262.07 303.736C262.771 305.918 291.907 423.865 291.907 423.865C291.907 423.865 362.567 318.46 364.008 313.202C365.449 307.982 357.23 280.832 357.23 280.832C357.23 280.832 378.148 265.407 379.433 262.057C380.719 258.708 383.368 237.206 379.433 234.479C377.018 232.804 362.956 229.649 362.956 229.649L288.402 226.845H288.363Z" fill="#302624"/>
<path d="M355.547 238.676L291.548 414.273L283.991 238.676H355.547Z" fill="white"/>
<path d="M325.98 269.806L312.113 280.829V357.916L291.547 414.28L289.015 355.072L298.675 279.777L291.625 265.248L307.673 256.328L325.98 269.806Z" fill="#0068D2"/>
<path d="M347.842 233.293L355.516 158.699L298.645 187.641L299.191 190.367L300.788 227.879C301.255 238.59 300.788 249.458 312.084 251.25C325.561 253.431 346.557 245.641 347.842 233.254V233.293Z" fill="#FBC0A4"/>
<path d="M300.194 213.661L299.22 190.367L298.674 187.641L355.545 158.699L351.922 193.873C341.756 209.104 321.695 213.7 300.233 213.622L300.194 213.661Z" fill="#F69D7D"/>
<path d="M260.776 127.85C261.01 110.087 259.958 84.5346 267.047 65.9154C267.047 65.9154 267.047 65.9154 267.047 65.8765C267.047 65.8765 267.047 65.8765 267.047 65.8375C270.203 57.6575 274.916 50.8798 282.044 46.673C289.835 41.0638 300.702 37.4413 316.984 36.1169C351.223 33.3902 373.465 46.2056 388.345 68.4863C399.446 85.08 394.694 106.893 392.435 114.762C398.745 115.346 407.549 119.163 405.562 136.497C402.485 162.985 383.32 163.491 377.672 164.66C377.672 164.66 367.116 211.831 308.96 207.312C250.765 202.794 260.309 157.765 260.737 127.889L260.776 127.85Z" fill="#FBC0A4"/>
<path d="M300.85 148.212C300.188 148.602 299.876 149.459 300.227 150.627C300.539 151.757 301.59 153.081 303.148 153.821C304.706 154.561 306.42 154.561 307.472 154.094C308.563 153.627 309.069 152.809 308.952 152.069C308.602 150.549 307.005 149.615 305.524 148.835C303.966 148.173 302.253 147.55 300.85 148.212Z" fill="#F69D7D"/>
<path d="M339.544 126.254C339.739 130.46 336.506 134.005 332.299 134.2C328.092 134.395 324.548 131.161 324.353 126.955C324.158 122.748 327.391 119.203 331.598 119.008C335.805 118.814 339.35 122.047 339.544 126.254Z" fill="#403433"/>
<path d="M299.148 126.254C299.343 130.46 296.11 134.005 291.903 134.2C287.696 134.395 284.151 131.161 283.956 126.955C283.762 122.748 286.995 119.203 291.202 119.008C295.408 118.814 298.953 122.047 299.148 126.254Z" fill="#403433"/>
<path d="M262.067 151.769C261.716 159.676 267.832 166.376 275.739 166.726C283.646 167.077 290.346 160.961 290.697 153.054C291.047 145.147 284.932 138.447 277.024 138.096C269.117 137.746 262.417 143.861 262.067 151.769Z" fill="#F9B092"/>
<path d="M334.783 153.792C334.433 161.699 340.548 168.399 348.456 168.75C356.363 169.1 363.063 162.985 363.413 155.078C363.764 147.17 357.648 140.47 349.741 140.12C341.834 139.769 335.134 145.885 334.783 153.792Z" fill="#F9B092"/>
<path d="M398.078 126.866C400.104 133.878 397.221 141.279 394.417 147.979C393.56 149.965 392.664 152.069 390.872 153.315C389.08 154.523 386.159 154.367 385.224 152.38C384.328 150.472 385.652 148.368 386.704 146.537C387.756 144.707 388.34 141.98 386.587 140.85C385.769 140.305 384.679 140.383 383.822 139.915C381.952 138.942 381.952 136.254 382.458 134.189C383.121 131.346 384.172 128.58 385.613 125.97C387.016 123.439 389.197 120.868 392.08 120.907C395.079 120.946 397.26 123.906 398.117 126.827L398.078 126.866Z" fill="#F9B092"/>
<path d="M300.002 165.093C299.613 165.716 300.704 167.274 303.352 168.521C305.923 169.767 310.208 170.507 314.609 169.105C319.011 167.703 322.088 164.625 323.491 162.132C324.932 159.562 324.893 157.692 324.231 157.38C322.867 156.757 319.362 161.899 312.973 163.846C306.624 165.95 300.781 163.768 300.041 165.093H300.002Z" fill="#F69D7D"/>
<path d="M344.049 109.498C338.869 113.782 315.848 109.926 318.497 102.33C321.107 94.7347 352.931 102.175 344.049 109.498Z" fill="#403433"/>
<path d="M301.908 105.718C298.169 111.288 274.992 114.093 275.343 106.107C275.693 98.0833 308.335 96.1746 301.908 105.718Z" fill="#403433"/>
<path d="M241.613 33.6238C252.48 2.57877 287.576 -8.56161 316.245 6.94142C347.68 23.9636 389.164 6.6298 389.203 6.59085C387.45 11.0314 381.451 18.4324 380.166 20.8474C403.304 27.0019 405.952 40.2846 405.952 40.2846C431.895 39.5056 408.679 59.2544 408.679 59.2544C421.066 71.0959 396.098 115.424 396.098 115.424C379.231 111.061 374.362 142.184 374.362 142.184L366.611 140.081V122.941C352.198 113.242 358.82 85.3914 358.82 85.3914C357.885 87.0664 349.277 86.1705 347.875 86.0147C339.928 85.1577 334.592 77.7178 326.84 76.3934C317.881 74.8743 309.39 81.1846 301.132 83.5996C291.627 86.3652 281.149 87.1053 271.45 84.8851C248.312 79.6265 233.588 56.5667 241.613 33.5848V33.6238Z" fill="#403433"/>
<path d="M349.088 221.268C349.088 221.268 320.146 253.404 312.083 251.261C304.02 249.119 300.475 220.723 300.475 220.723C300.475 220.723 282.869 224.501 280.882 227.968C278.896 231.435 277.844 265.206 283.726 271.361C289.607 277.554 308.928 260.181 308.928 260.181C308.928 260.181 325.483 281.644 334.714 279.58C343.946 277.515 365.097 236.615 366.46 231.746C367.824 226.877 349.049 221.229 349.049 221.229L349.088 221.268Z" fill="white"/>
<path d="M152.049 511.963L297.612 601.536L374.58 538.673L229.906 448.223L152.049 511.963Z" fill="white"/>
<path d="M398.587 304.613C400.101 321.422 414.949 333.853 431.787 332.314C448.596 330.801 461.027 315.952 459.488 299.114C457.975 282.306 443.126 269.874 426.288 271.413C409.48 272.927 397.048 287.775 398.587 304.613Z" fill="#FBC0A4"/>
<path d="M432.08 440.136C433.384 454.39 445.962 464.925 460.216 463.621C474.495 462.347 485.004 449.739 483.7 435.485C482.396 421.231 469.819 410.697 455.565 412.001C441.285 413.275 430.776 425.882 432.08 440.136Z" fill="#FBC0A4"/>
<path d="M400.272 312.128C415.437 360.64 430.378 429.125 432.071 440.148L483.692 435.497C483.692 435.497 474.188 332.38 457.572 290.863L400.272 312.128Z" fill="#FBC0A4"/>
<path d="M447.297 414.143C434.219 420.001 428.382 435.307 434.211 448.411C440.069 461.489 455.374 467.326 468.478 461.498C481.583 455.669 487.394 440.334 481.565 427.23C475.707 414.151 460.402 408.314 447.297 414.143Z" fill="#FBC0A4"/>
<path d="M341.108 478.314C334.328 481.323 331.292 489.285 334.327 496.094C337.336 502.874 345.298 505.91 352.107 502.875C358.886 499.866 361.923 491.904 358.888 485.095C355.879 478.316 347.917 475.279 341.108 478.314Z" fill="#FBC0A4"/>
<path d="M341.114 478.321C357.493 472.636 378.304 455.607 405.208 438.283C431.104 421.579 447.301 414.142 447.301 414.142L468.457 461.467C468.457 461.467 365.67 500.067 349.153 503.754L341.143 478.295L341.114 478.321Z" fill="#FBC0A4"/>
<path d="M338.608 480.023C332.821 484.647 331.82 493.109 336.47 498.925C341.094 504.712 349.556 505.713 355.372 501.063C361.188 496.414 362.16 487.977 357.51 482.161C352.886 476.374 344.424 475.373 338.608 480.023Z" fill="#FBC0A4"/>
<path d="M303.991 528.168C306.821 530.352 308.876 533.78 313.196 533.582C317.961 533.36 322.594 528.656 326.173 526.005C337.03 517.95 347.182 508.907 356.942 499.533L338.58 480.039C338.145 479.54 325.82 481.695 324.409 481.735C318.161 481.855 311.792 478.928 305.569 477.89C298.991 476.799 292.427 474.715 285.709 474.83C277.332 474.995 277.936 478.239 278.563 485.13C279.57 496.492 268.819 500.634 260.542 506.134C258.314 507.609 255.798 509.643 256 512.308C256.178 514.529 258.357 516.143 260.558 516.655C262.734 517.137 265.021 516.798 267.26 516.76C273.229 516.677 279.222 519.052 283.546 523.19C285.904 525.424 288.157 528.368 291.399 528.593C294.726 528.796 297.877 525.95 301.107 526.753C302.22 527.024 303.15 527.557 304.013 528.252L303.991 528.168Z" fill="#FBC0A4"/>
<path d="M451.674 327.857C459.989 320.619 464.389 309.715 463.41 298.741C462.609 289.575 458.241 281.293 451.17 275.364C444.124 269.464 435.179 266.663 425.983 267.489C418.704 268.145 411.962 271.018 406.467 275.801C398.152 283.038 393.753 293.942 394.732 304.916C396.43 323.836 413.238 337.866 432.158 336.168C439.437 335.513 446.18 332.639 451.674 327.857Z" fill="#3E3533"/>
<path d="M477.417 460.324C484.615 454.058 488.414 444.658 487.527 435.154C486.807 427.208 483.052 420.045 476.945 414.929C470.839 409.812 463.11 407.399 455.164 408.119C448.886 408.677 443.027 411.143 438.267 415.286C431.069 421.551 427.27 430.952 428.128 440.481C428.848 448.427 432.603 455.59 438.71 460.707C444.816 465.823 452.545 468.236 460.491 467.517C466.769 466.958 472.632 464.437 477.362 460.32L477.417 460.324Z" fill="#3E3533"/>
<path d="M487.593 435.15C487.197 430.898 477.828 331.021 461.22 289.394L459.807 285.873L395.48 309.743L396.588 313.271C411.749 361.838 426.588 429.791 428.26 440.73L428.811 444.33L487.96 439.013L487.622 435.124L487.593 435.15Z" fill="#3E3533"/>
<path d="M477.48 460.325C487.44 451.656 490.503 437.732 485.101 425.651C481.851 418.358 475.94 412.813 468.516 409.979C461.092 407.146 452.961 407.355 445.723 410.609C443.015 411.829 440.53 413.424 438.327 415.342C428.366 424.012 425.303 437.935 430.706 450.016C437.424 465.032 455.068 471.776 470.084 465.058C472.791 463.838 475.276 462.243 477.48 460.325Z" fill="#3E3533"/>
<path d="M342.759 471.357L329.971 478.201L346.02 512.362L357.714 506.159L342.759 471.357Z" fill="#EFEEFF"/>
<path d="M449.253 408.984L445.661 410.612C445.004 410.926 429.567 419.354 403.11 434.997C386.125 445.03 336.66 470.372 336.66 470.372L357.047 512.84C357.047 512.84 465.603 466.688 469.825 465.131L473.709 463.661L449.253 408.984Z" fill="#3E3533"/>
<path d="M210.175 328.876C227.587 336.471 247.959 328.447 255.555 311.036C263.151 293.624 255.126 273.252 237.715 265.656C220.303 258.06 199.931 266.085 192.335 283.496C184.739 300.908 192.764 321.28 210.175 328.876Z" fill="#3E3533"/>
<path d="M176.136 439.731L177.811 436.459C182.602 427.072 221.321 359.84 251.198 318.356L253.34 315.357L199.508 272.938L197.365 275.314C180.071 300.087 125.07 408.219 123.239 412.426L121.681 416.009L176.136 439.731Z" fill="#3E3533"/>
<path d="M138.702 451.693C151.128 457.107 165.657 453.446 174.032 442.734C184.198 429.802 181.9 411.026 168.968 400.86C166.942 399.302 164.761 397.977 162.463 396.965C150.037 391.55 135.508 395.212 127.094 405.885C116.928 418.817 119.226 437.592 132.158 447.759C134.183 449.317 136.365 450.641 138.663 451.654L138.702 451.693Z" fill="#3E3533"/>
<path d="M123.545 408.337C114.118 421.775 117.351 440.433 130.829 449.86C144.267 459.286 162.925 456.053 172.352 442.576C181.778 429.137 178.545 410.479 165.068 401.052C151.59 391.626 132.971 394.859 123.545 408.337Z" fill="#3E3533"/>
<path d="M71.4292 314.822C66.1133 309.627 57.6339 309.73 52.4298 315.008C47.2342 320.324 47.3381 328.804 52.616 334.008C57.8939 339.212 66.4113 339.099 71.6154 333.822C76.811 328.506 76.7071 320.026 71.4292 314.822Z" fill="#FBC0A4"/>
<path d="M15.6426 290.12C16.9519 289.907 18.49 290.001 19.7227 289.446C22.5217 288.22 22.8272 284.239 21.6011 281.44C20.3751 278.641 18.0684 276.364 17.0324 273.522C16.4295 271.901 16.3372 269.886 17.5391 268.658C20.4194 265.658 30.0349 272.405 29.0449 264.603C28.4277 259.711 12.659 242.607 9.01219 237.557C8.13539 236.316 7.21601 234.886 7.57256 233.448C8.02151 231.711 10.2044 230.942 11.9417 231.391C13.679 231.84 15.008 233.139 16.2904 234.409C27.7354 245.935 38.2315 258.393 47.6306 271.655C49.5493 274.338 52.1024 277.359 55.3463 276.872C57.1963 276.577 58.7062 275.121 59.5228 273.421C61.9897 268.397 61.6634 263.201 66.7057 259.516C69.7268 257.322 81.4672 254.491 77.3482 261.761C75.5709 264.874 73.7935 267.987 72.0162 271.1C69.9498 275.595 67.4076 280.995 67.184 285.875C66.6679 297.287 69.4808 310.908 71.4356 314.821L54.3445 335.457C52.8359 335.316 49.7239 331.582 48.6321 330.63C44.3372 326.962 40.0803 323.285 35.8528 319.562C27.9989 312.66 19.1396 305.903 14.0657 296.621C13.1247 294.916 12.339 292.657 13.6123 291.214C14.1478 290.575 14.8909 290.329 15.6976 290.188L15.6426 290.12Z" fill="#FBC0A4"/>
<path d="M209.705 328.876C227.116 336.471 247.488 328.447 255.084 311.036C262.68 293.624 254.656 273.252 237.244 265.656C219.832 258.06 199.46 266.085 191.864 283.496C184.269 300.908 192.293 321.28 209.705 328.876Z" fill="#3E3533"/>
<path d="M175.666 439.731L177.34 436.459C182.132 427.072 220.85 359.84 250.727 318.356L252.869 315.357L199.037 272.938L196.895 275.314C179.6 300.087 124.599 408.219 122.768 412.426L121.21 416.009L175.666 439.731Z" fill="#3E3533"/>
<path d="M138.231 451.693C150.657 457.107 165.186 453.446 173.561 442.734C183.728 429.802 181.429 411.026 168.497 400.86C166.472 399.302 164.29 397.977 161.992 396.965C149.566 391.55 135.037 395.212 126.623 405.885C116.457 418.817 118.755 437.592 131.687 447.759C133.713 449.317 135.894 450.641 138.192 451.654L138.231 451.693Z" fill="#3E3533"/>
<path d="M57.5629 343.357L45.9552 335.255L73.2997 305.105L84.6738 319.05L57.5629 343.357Z" fill="white"/>
<path d="M123.074 408.337C113.647 421.775 116.881 440.433 130.358 449.86C143.797 459.286 162.455 456.053 171.881 442.576C181.308 429.137 178.075 410.479 164.597 401.052C151.12 391.626 132.5 394.859 123.074 408.337Z" fill="#3E3533"/>
<path d="M124.711 444.756L127.242 447.794L172.895 408.998L170.051 405.998C166.74 402.532 83.2652 305.93 83.2652 305.93L47.8965 341.337C47.8965 341.337 124.282 444.171 124.749 444.756H124.711Z" fill="#3E3533"/>
</g>
<defs>
<clipPath id="clip0_1624_765">
<rect width="554" height="787" fill="white"/>
</clipPath>
</defs>
</svg>
