<svg width="312" height="586" viewBox="0 0 312 586" fill="none" xmlns="http://www.w3.org/2000/svg">
<g clip-path="url(#clip0_1383_4567)">
<path d="M230.051 252.723C243.331 252.723 254.096 241.958 254.096 228.678C254.096 215.398 243.331 204.633 230.051 204.633C216.771 204.633 206.006 215.398 206.006 228.678C206.006 241.958 216.771 252.723 230.051 252.723Z" fill="#FBC0A4"/>
<path d="M243.043 363.708C254.293 363.708 263.413 354.588 263.413 343.338C263.413 332.089 254.293 322.969 243.043 322.969C231.793 322.969 222.673 332.089 222.673 343.338C222.673 354.588 231.793 363.708 243.043 363.708Z" fill="#FBC0A4"/>
<path d="M206.771 234.683C215.226 273.768 222.118 334.571 222.669 343.331H263.439C263.439 343.331 263.255 255.788 253.177 222.094L206.802 234.714L206.771 234.683Z" fill="#FBC0A4"/>
<path d="M260.862 445.051C262.332 450.687 268.091 454.087 273.758 452.617C279.394 451.146 282.794 445.388 281.324 439.721C279.853 434.085 274.095 430.685 268.428 432.155C262.792 433.625 259.392 439.384 260.862 445.051Z" fill="#FBC0A4"/>
<path d="M260.862 445.047C260.77 453.011 247.599 460.914 244.566 466.458C241.503 471.971 246.619 478.618 246.619 478.618C246.619 478.618 246.864 485.602 248.089 489.308C249.314 493.015 253.51 493.229 257.492 489.523C261.475 485.786 263.557 491.759 268.857 490.472C274.186 489.217 275.381 484.377 281.813 486.644C288.246 488.88 281.66 442.137 281.66 442.137L260.862 445.047Z" fill="#FBC0A4"/>
<path d="M223.317 348.478C226.166 359.382 237.285 365.907 248.189 363.058C259.094 360.21 265.618 349.09 262.77 338.186C259.921 327.281 248.802 320.757 237.897 323.606C226.993 326.454 220.468 337.573 223.317 348.478Z" fill="#FBC0A4"/>
<path d="M260.873 445.058C262.344 450.695 268.102 454.095 273.769 452.624C279.405 451.154 282.805 445.395 281.335 439.729C279.865 434.093 274.106 430.693 268.439 432.163C262.803 433.633 259.403 439.392 260.873 445.058Z" fill="#FBC0A4"/>
<path d="M260.872 445.059C258.606 431.612 246.537 407.322 236.582 384.226C226.995 361.988 223.319 348.449 223.319 348.449L262.772 338.188C262.772 338.188 280.936 428.855 281.64 442.149L260.842 445.059H260.872Z" fill="#FBC0A4"/>
<path d="M158.932 441.502C163.22 422.613 151.383 403.824 132.494 399.536C113.604 395.247 94.8153 407.084 90.5272 425.974C86.2391 444.863 98.0758 463.652 116.965 467.94C135.855 472.228 154.644 460.391 158.932 441.502Z" fill="#302624"/>
<path d="M153.907 616.311L159.818 433.781H89.6428L94.4519 616.311H153.907Z" fill="#302624"/>
<path d="M153.136 623.164C156.896 607.174 146.98 591.164 130.99 587.404C115 583.645 98.9891 593.56 95.2298 609.551C91.4704 625.541 101.386 641.551 117.376 645.311C133.367 649.07 149.377 639.155 153.136 623.164Z" fill="#302624"/>
<path d="M233.02 429.732C235.256 448.968 221.442 466.397 202.206 468.603C182.969 470.839 165.54 457.024 163.335 437.788C161.099 418.552 174.913 401.122 194.15 398.917C213.386 396.681 230.815 410.496 233.02 429.732Z" fill="#302624"/>
<path d="M248.123 611.74L233.022 429.73L163.337 437.786L189.067 618.571L248.123 611.74Z" fill="#302624"/>
<path d="M248.215 612.562C249.655 628.919 237.556 643.347 221.199 644.786C204.842 646.226 190.415 634.127 188.975 617.77C187.535 601.413 199.634 586.986 215.991 585.546C232.348 584.106 246.776 596.205 248.215 612.562Z" fill="#302624"/>
<path d="M233.389 398.676H197.919C197.919 398.676 197.704 398.676 197.612 398.676H124.864C124.864 398.676 124.772 398.676 124.711 398.676C124.649 398.676 124.619 398.676 124.557 398.676H89.6074V433.993C89.7299 453.26 105.382 468.851 124.68 468.851H198.133C199.481 468.851 200.798 468.79 202.176 468.606C219.973 466.554 233.114 451.484 233.205 433.993H233.359V398.676H233.389Z" fill="#302624"/>
<path d="M233.389 398.676H197.919C197.919 398.676 197.704 398.676 197.612 398.676H124.864C124.864 398.676 124.772 398.676 124.711 398.676C124.649 398.676 124.619 398.676 124.557 398.676H89.6074V433.993C89.7299 453.26 105.382 468.851 124.68 468.851H198.133C199.481 468.851 200.798 468.79 202.176 468.606C219.973 466.554 233.114 451.484 233.205 433.993H233.359V398.676H233.389Z" fill="#302624"/>
<path d="M253.391 234.45C256.594 221.562 248.744 208.518 235.856 205.314C222.969 202.11 209.924 209.961 206.72 222.848C203.517 235.736 211.367 248.781 224.255 251.984C237.142 255.188 250.187 247.338 253.391 234.45Z" fill="#FBC0A4"/>
<path d="M98.5886 239.992C101.605 227.059 93.5667 214.13 80.634 211.113C67.7013 208.096 54.7718 216.135 51.7551 229.068C48.7385 242 56.777 254.93 69.7097 257.947C82.6424 260.963 95.5719 252.925 98.5886 239.992Z" fill="#FBC0A4"/>
<path d="M79.6635 248.507L95.4691 326.555L83.4005 425.309C83.4005 425.309 159.825 454.286 238.363 429.935C238.363 429.935 234.258 315.896 226.907 226.484L246.602 211.26C229.296 195.209 168.555 173.952 151.524 176.647C124.722 180.874 58.1912 212.302 56.2002 219.837L79.6635 248.538V248.507Z" fill="#FBC0A4"/>
<path d="M255.266 438.276V449.395L287 445.443L283.171 431.812L255.266 438.276Z" fill="white"/>
<path d="M230.051 255.779C215.103 255.779 202.942 243.619 202.942 228.671C202.942 213.723 215.103 201.562 230.051 201.562C244.999 201.562 257.159 213.723 257.159 228.671C257.159 243.619 244.999 255.779 230.051 255.779Z" fill="#3E3533"/>
<path d="M219.791 346.374L219.607 343.495C219.086 335.225 212.286 274.606 203.771 235.306L203.158 232.458L255.292 218.766L256.088 221.155C260.775 244.434 266.472 339.697 266.472 343.281V346.344H219.76L219.791 346.374Z" fill="#3E3533"/>
<path d="M243.044 366.782C232.384 366.782 223.072 359.553 220.377 349.231C217.13 336.733 224.665 323.899 237.162 320.621C239.092 320.131 241.083 319.855 243.074 319.855C253.734 319.855 263.076 327.054 265.741 337.407C268.988 349.935 261.483 362.739 248.955 366.016C247.026 366.537 245.004 366.782 243.044 366.782Z" fill="#3E3533"/>
<path d="M243.038 366.748C230.111 366.748 219.574 356.241 219.574 343.315C219.574 330.389 230.081 319.852 243.038 319.852C255.994 319.852 266.47 330.358 266.47 343.315C266.47 356.272 255.964 366.748 243.038 366.748Z" fill="#3E3533"/>
<path d="M241.2 402.285C238.719 396.71 236.176 391.043 233.756 385.437C224.199 363.23 220.493 349.814 220.371 349.262L219.574 346.291L265.153 334.406L265.796 337.592C266.532 341.298 291.006 438.674 291.006 438.674L252.227 445.444C252.227 445.444 248.919 419.53 241.23 402.315L241.2 402.285Z" fill="#3E3533"/>
<path d="M230.06 255.775C220.472 255.775 211.804 250.874 206.841 242.696C199.092 229.892 203.227 213.198 216 205.479C220.227 202.906 225.067 201.559 229.998 201.559C239.586 201.559 248.254 206.46 253.217 214.638C256.954 220.825 258.087 228.116 256.341 235.161C254.595 242.206 250.245 248.118 244.058 251.885C239.831 254.458 234.991 255.806 230.06 255.806V255.775Z" fill="#3E3533"/>
<path d="M75.1851 261.686C90.1567 261.686 102.294 249.549 102.294 234.577C102.294 219.606 90.1567 207.469 75.1851 207.469C60.2135 207.469 48.0767 219.606 48.0767 234.577C48.0767 249.549 60.2135 261.686 75.1851 261.686Z" fill="#F8E8D8"/>
<path d="M171.117 442.743C121.28 442.743 83.8491 428.776 82.287 428.163L80.0509 427.305L92.3646 326.682L76.8347 249.86L52.8506 220.546L53.2488 219.045C55.9443 208.876 126.763 177.479 151.054 173.619C152.187 173.436 153.504 173.344 154.944 173.344C175.957 173.344 231.736 193.254 248.705 208.998L251.217 211.724L230.112 227.898C237.28 316.115 241.384 428.714 241.446 429.848L241.537 432.176L239.301 432.88C218.166 439.435 195.254 442.774 171.178 442.774L171.117 442.743Z" fill="#3E3533"/>
<path d="M181.684 178.376C181.684 178.376 193.661 177.856 195.836 179.203C198.011 180.551 203.463 196.295 204.566 198.777C205.668 201.258 189.985 215.899 189.985 215.899C189.985 215.899 202.912 237.127 202.36 238.842C201.809 240.557 178.897 333.308 178.897 333.308C178.897 333.308 123.332 250.42 122.199 246.285C121.066 242.181 127.529 220.831 127.529 220.831C127.529 220.831 111.08 208.701 110.069 206.067C109.058 203.432 106.975 186.524 110.069 184.38C111.968 183.063 123.026 180.582 123.026 180.582L181.654 178.376H181.684Z" fill="#302624"/>
<path d="M128.854 187.684L179.18 325.768L185.123 187.684H128.854Z" fill="white"/>
<path d="M152.102 212.157L163.007 220.825V281.444L179.18 325.767L181.171 279.208L173.574 219.998L179.119 208.573L166.499 201.559L152.102 212.157Z" fill="#0068D2"/>
<path d="M134.912 183.455L128.877 124.797L173.598 147.556L173.17 149.7L171.914 179.198C171.546 187.621 171.914 196.167 163.031 197.576C152.432 199.291 135.922 193.165 134.912 183.425V183.455Z" fill="#FBC0A4"/>
<path d="M172.38 168.017L173.146 149.7L173.575 147.556L128.853 124.797L131.702 152.457C139.697 164.433 155.472 168.048 172.349 167.987L172.38 168.017Z" fill="#F69D7D"/>
<path d="M203.376 100.543C203.192 86.5748 204.019 66.4808 198.445 51.8392C198.445 51.8392 198.445 51.8392 198.445 51.8086C198.445 51.8086 198.445 51.8086 198.445 51.778C195.963 45.3455 192.257 40.0157 186.652 36.7075C180.525 32.2967 171.979 29.448 159.176 28.4065C132.251 26.2624 114.761 36.34 103.06 53.8609C94.3299 66.9097 98.0668 84.063 99.8434 90.2505C94.8812 90.71 87.9586 93.7118 89.5208 107.343C91.9406 128.172 107.011 128.57 111.453 129.489C111.453 129.489 119.754 166.583 165.486 163.03C211.248 159.477 203.744 124.067 203.407 100.573L203.376 100.543Z" fill="#FBC0A4"/>
<path d="M171.863 116.55C172.384 116.857 172.629 117.531 172.353 118.449C172.108 119.338 171.281 120.379 170.056 120.961C168.83 121.543 167.483 121.543 166.656 121.176C165.798 120.808 165.4 120.165 165.492 119.583C165.767 118.388 167.023 117.653 168.187 117.04C169.412 116.52 170.76 116.03 171.863 116.55Z" fill="#F69D7D"/>
<path d="M141.436 99.286C141.282 102.594 143.825 105.382 147.133 105.535C150.441 105.688 153.228 103.145 153.382 99.8373C153.535 96.5292 150.992 93.7418 147.684 93.5886C144.376 93.4354 141.589 95.9778 141.436 99.286Z" fill="#403433"/>
<path d="M173.203 99.286C173.05 102.594 175.592 105.382 178.9 105.535C182.208 105.688 184.996 103.145 185.149 99.8373C185.302 96.5292 182.76 93.7418 179.452 93.5886C176.143 93.4354 173.356 95.9778 173.203 99.286Z" fill="#403433"/>
<path d="M202.362 119.345C202.638 125.563 197.829 130.831 191.611 131.107C185.393 131.383 180.124 126.574 179.849 120.356C179.573 114.138 184.382 108.869 190.6 108.593C196.818 108.318 202.087 113.127 202.362 119.345Z" fill="#F9B092"/>
<path d="M145.18 120.935C145.456 127.153 140.647 132.421 134.429 132.697C128.211 132.973 122.942 128.164 122.667 121.945C122.391 115.727 127.2 110.459 133.418 110.183C139.636 109.907 144.905 114.717 145.18 120.935Z" fill="#F9B092"/>
<path d="M95.4065 99.765C93.8137 105.279 96.0804 111.098 98.2858 116.367C98.9597 117.929 99.6642 119.583 101.073 120.563C102.482 121.513 104.78 121.39 105.515 119.828C106.219 118.327 105.178 116.673 104.351 115.234C103.524 113.794 103.064 111.65 104.443 110.762C105.086 110.333 105.944 110.394 106.617 110.026C108.088 109.261 108.088 107.147 107.689 105.524C107.169 103.288 106.342 101.113 105.208 99.0605C104.106 97.0695 102.39 95.0478 100.124 95.0785C97.7651 95.1091 96.0497 97.437 95.3758 99.7344L95.4065 99.765Z" fill="#F9B092"/>
<path d="M172.53 129.829C172.837 130.319 171.979 131.544 169.896 132.524C167.874 133.504 164.505 134.086 161.044 132.984C157.582 131.881 155.162 129.461 154.06 127.501C152.926 125.479 152.957 124.009 153.478 123.764C154.55 123.273 157.307 127.317 162.33 128.848C167.323 130.502 171.918 128.787 172.5 129.829H172.53Z" fill="#F69D7D"/>
<path d="M137.893 86.1102C141.967 89.4796 160.07 86.4471 157.987 80.4741C155.935 74.501 130.91 80.3515 137.893 86.1102Z" fill="#403433"/>
<path d="M171.032 83.1353C173.972 87.5155 192.198 89.7209 191.922 83.4416C191.646 77.1316 165.978 75.6307 171.032 83.1353Z" fill="#403433"/>
<path d="M218.447 26.4408C209.901 2.02787 182.302 -6.7326 159.758 5.45853C135.038 18.8443 102.416 5.21348 102.386 5.18285C103.764 8.67478 108.481 14.4947 109.492 16.3938C91.2974 21.2335 89.2145 31.6787 89.2145 31.6787C68.8143 31.066 87.0704 46.596 87.0704 46.596C77.3297 55.9078 96.9642 90.7658 96.9642 90.7658C110.227 87.3352 114.056 111.809 114.056 111.809L120.152 110.155V96.6776C131.485 89.0505 126.278 67.1493 126.278 67.1493C127.013 68.4665 133.783 67.762 134.885 67.6394C141.134 66.9656 145.33 61.115 151.426 60.0736C158.471 58.879 165.149 63.8412 171.643 65.7403C179.116 67.9151 187.356 68.4971 194.983 66.7511C213.178 62.616 224.757 44.4824 218.447 26.4101V26.4408Z" fill="#403433"/>
<path d="M133.931 173.995C133.931 173.995 156.69 199.266 163.031 197.581C169.371 195.896 172.159 173.566 172.159 173.566C172.159 173.566 186.004 176.538 187.566 179.264C189.128 181.99 189.955 208.547 185.33 213.387C180.705 218.257 165.512 204.596 165.512 204.596C165.512 204.596 152.494 221.473 145.234 219.85C137.975 218.226 121.342 186.064 120.27 182.235C119.198 178.406 133.962 173.965 133.962 173.965L133.931 173.995Z" fill="white"/>
<path d="M80.7563 423.693C83.6049 428.809 81.7365 435.241 76.6517 438.059C71.5363 440.908 65.1038 439.039 62.2858 433.955C59.4371 428.839 61.3056 422.407 66.3903 419.589C71.5057 416.74 77.9382 418.609 80.7563 423.693Z" fill="#FBC0A4"/>
<path d="M80.7576 423.684C86.3019 429.381 101.311 426.042 107.345 427.911C113.38 429.81 114.237 438.141 114.237 438.141C114.237 438.141 118.863 443.349 120.547 446.902C122.232 450.455 119.322 453.488 113.9 453.549C108.448 453.61 111.052 459.338 106.335 462.095C101.617 464.852 97.4209 462.187 94.3272 468.252C91.2334 474.317 63.7268 435.936 63.7268 435.936L80.7883 423.684H80.7576Z" fill="#FBC0A4"/>
<path d="M23.4488 361.205C20.692 361.205 17.9965 360.715 15.3928 359.765C9.51168 357.621 4.82514 353.302 2.19088 347.604C-0.443387 341.907 -0.719068 335.567 1.45573 329.685C4.82514 320.496 13.6775 314.309 23.4794 314.309C26.2362 314.309 28.9317 314.799 31.5354 315.748C37.4165 317.892 42.1031 322.211 44.7373 327.909C47.3716 333.606 47.6473 339.947 45.4725 345.828C42.1031 355.017 33.2507 361.205 23.4488 361.205Z" fill="#3E3533"/>
<path d="M60.939 435.912L67.1877 444.458L89.5177 425.651L82.105 418.238L60.939 435.912Z" fill="white"/>
<path d="M59.1346 438.975C46.9435 425.65 5.10153 352.473 3.07988 349.287L1.08887 344.631L42.5326 323.68L44.0029 326.406C44.2786 326.927 50.8642 339.179 59.2571 361.846C61.3707 367.574 88.9692 418.881 88.9692 418.881L60.9418 441.119L59.104 438.975H59.1346Z" fill="#3E3533"/>
<path d="M75.0966 261.681C71.911 261.681 68.7866 261.13 65.7848 260.027C58.9847 257.546 53.563 252.553 50.4999 245.967C47.4675 239.382 47.1611 232.03 49.6423 225.23C53.5324 214.601 63.7631 207.434 75.0966 207.434C78.2822 207.434 81.4066 207.985 84.4084 209.088C98.4374 214.234 105.666 229.825 100.551 243.884C96.6608 254.513 86.4301 261.681 75.0966 261.681Z" fill="#3E3533"/>
<path d="M0.389518 333.688L1.4616 329.675C2.71747 326.306 32.1539 246.788 53.228 218.577L55.0046 216.188L99.0213 247.4L97.4591 249.851C75.9868 283.759 48.7252 338.375 45.3864 345.971L44.2225 348.605L0.358887 333.657L0.389518 333.688Z" fill="#3E3533"/>
<path d="M23.4775 361.197C14.9621 361.197 7.08991 356.572 2.95472 349.128C-3.32463 337.825 0.77992 323.521 12.0828 317.241C15.5747 315.312 19.4955 314.301 23.4469 314.301C31.9623 314.301 39.8344 318.926 43.9696 326.369C47.0021 331.852 47.7372 338.193 46.0219 344.197C44.3066 350.231 40.3245 355.193 34.8722 358.256C31.4109 360.186 27.4595 361.197 23.5081 361.197H23.4775Z" fill="#3E3533"/>
</g>
<defs>
<clipPath id="clip0_1383_4567">
<rect width="312" height="586" fill="white"/>
</clipPath>
</defs>
</svg>
