<svg width="543" height="502" viewBox="0 0 543 502" fill="none" xmlns="http://www.w3.org/2000/svg">
<path d="M171.14 410.755L154.524 576.42C154.524 576.42 127.405 580.678 109.117 573.598L120.613 406.34L171.14 410.755Z" fill="#302624"/>
<path d="M120.65 406.314C119.422 420.265 129.742 432.571 143.693 433.799C157.644 435.027 169.95 424.707 171.178 410.756C172.406 396.804 162.086 384.499 148.134 383.271C134.183 382.043 121.878 392.363 120.65 406.314Z" fill="#302624"/>
<path d="M407.059 135.336H258.951L250.748 355.813C252.655 381.939 231.989 404.198 205.785 404.198H353.893C380.098 404.198 400.763 381.939 398.856 355.813L407.059 135.336Z" fill="#A3857A"/>
<path d="M411.169 135.336H407.067L398.864 355.813C400.771 381.939 380.105 404.198 353.901 404.198H171.516V408.3H353.901C367.513 408.3 380.654 402.578 389.929 392.598C399.203 382.618 403.932 369.111 402.939 355.525L411.169 135.362V135.336Z" fill="#A3857A"/>
<path d="M350.557 404.172H171.516V408.274H350.557V404.172Z" fill="#A3857A"/>
<path d="M389.927 392.573C386.27 396.518 381.985 399.758 377.309 402.292L396.355 605.996H402.52L390.084 392.391C390.084 392.391 389.98 392.521 389.927 392.573Z" fill="#A3857A"/>
<path d="M313.925 408.273L293.051 605.995H299.216L327.145 408.273H313.925Z" fill="#A3857A"/>
<path d="M186.246 408.273L165.371 605.995H171.511L199.465 408.273H186.246Z" fill="#A3857A"/>
<path d="M139.641 383.795C126.081 387.244 117.878 401.064 121.326 414.624C124.775 428.183 138.596 436.387 152.155 432.938C165.714 429.489 173.918 415.669 170.469 402.109C167.021 388.55 153.2 380.346 139.641 383.795Z" fill="#302624"/>
<path d="M258.328 339.12C242.312 343.195 232.646 359.498 236.721 375.513C240.797 391.528 257.1 401.195 273.115 397.119C289.13 393.044 298.797 376.741 294.721 360.726C290.645 344.711 274.343 335.044 258.328 339.12Z" fill="#302624"/>
<path d="M139.645 383.796L258.335 339.121L273.096 397.121L152.159 432.939L139.645 383.796Z" fill="#302624"/>
<path d="M254.906 338.203H285.16C285.16 338.203 285.343 338.203 285.421 338.203H347.47C347.47 338.203 347.549 338.203 347.601 338.203C347.653 338.203 347.679 338.203 347.732 338.203H377.541V368.326C377.437 384.76 364.087 398.058 347.627 398.058H284.977C283.828 398.058 282.704 398.005 281.529 397.849C266.349 396.098 255.141 383.244 255.063 368.326H254.932V338.203H254.906Z" fill="#302624"/>
<path d="M254.906 338.203H285.16C285.16 338.203 285.343 338.203 285.421 338.203H347.47C347.47 338.203 347.549 338.203 347.601 338.203C347.653 338.203 347.679 338.203 347.732 338.203H377.541V368.326C377.437 384.76 364.087 398.058 347.627 398.058H284.977C283.828 398.058 282.704 398.005 281.529 397.849C266.349 396.098 255.141 383.244 255.063 368.326H254.932V338.203H254.906Z" fill="#302624"/>
<path d="M239.772 404.797L255.918 571.141C255.918 571.141 235.645 580.389 216.207 577.751L189.637 412.269L239.799 404.797H239.772Z" fill="#302624"/>
<path d="M189.612 412.269C191.676 426.116 204.582 435.678 218.429 433.614C232.276 431.55 241.838 418.644 239.774 404.797C237.71 390.95 224.804 381.388 210.957 383.452C197.11 385.516 187.548 398.422 189.612 412.269Z" fill="#302624"/>
<path d="M208.461 383.795C194.902 387.244 186.698 401.064 190.147 414.624C193.595 428.183 207.416 436.387 220.975 432.938C234.535 429.489 242.738 415.669 239.29 402.109C235.841 388.55 222.02 380.346 208.461 383.795Z" fill="#302624"/>
<path d="M340.191 339.12C324.176 343.195 314.509 359.498 318.585 375.513C322.66 391.528 338.963 401.195 354.978 397.119C370.993 393.044 380.66 376.741 376.584 360.726C372.509 344.711 356.206 335.044 340.191 339.12Z" fill="#302624"/>
<path d="M208.465 383.796L340.192 339.121L354.979 397.121L220.979 432.939L208.465 383.796Z" fill="#302624"/>
<path d="M244.931 214.898C255.923 212.165 262.619 201.039 259.887 190.047C257.154 179.055 246.028 172.359 235.036 175.091C224.044 177.824 217.348 188.95 220.08 199.942C222.813 210.934 233.939 217.63 244.931 214.898Z" fill="#FBC0A4"/>
<path d="M375.959 220.335C387.08 218.189 394.357 207.434 392.211 196.312C390.065 185.191 379.31 177.914 368.188 180.06C357.067 182.206 349.79 192.961 351.936 204.083C354.082 215.204 364.837 222.481 375.959 220.335Z" fill="#FBC0A4"/>
<path d="M239.981 218.157C252.73 218.157 263.102 207.785 263.102 195.036C263.102 182.286 252.73 171.914 239.981 171.914C227.231 171.914 216.859 182.286 216.859 195.036C216.859 207.785 227.231 218.157 239.981 218.157Z" fill="#3E3533"/>
<path d="M248.734 295.434L248.891 292.979C249.335 285.925 255.135 234.221 262.398 200.702L262.92 198.272L218.454 186.594L217.775 188.632C213.777 208.487 208.918 289.739 208.918 292.796V295.408H248.76L248.734 295.434Z" fill="#3E3533"/>
<path d="M228.903 312.81C237.995 312.81 245.937 306.644 248.236 297.84C251.005 287.181 244.578 276.234 233.919 273.438C232.273 273.02 230.575 272.785 228.877 272.785C219.785 272.785 211.817 278.925 209.544 287.755C206.774 298.415 213.175 309.361 223.861 312.157C225.507 312.601 227.231 312.81 228.903 312.81Z" fill="#3E3533"/>
<path d="M239.959 218.157C248.137 218.157 255.53 213.977 259.763 207.001C266.373 196.081 262.846 181.842 251.951 175.258C248.346 173.064 244.218 171.914 240.012 171.914C231.834 171.914 224.441 176.094 220.208 183.07C217.021 188.347 216.054 194.565 217.543 200.574C219.033 206.583 222.742 211.626 228.02 214.839C231.625 217.034 235.753 218.183 239.959 218.183V218.157Z" fill="#3E3533"/>
<path d="M380.795 221.384C392.624 216.574 398.314 203.085 393.503 191.256C388.693 179.427 375.204 173.737 363.375 178.548C351.546 183.358 345.857 196.847 350.667 208.676C355.478 220.505 368.966 226.194 380.795 221.384Z" fill="#F8E8D8"/>
<path d="M377.484 338.205L377.144 265.575L370.665 213.114L391.121 188.112L390.782 186.831C388.483 178.158 328.079 151.379 307.361 148.087C306.395 147.93 305.271 147.852 304.044 147.852C286.121 147.852 238.546 164.833 224.072 178.262L221.93 180.587L239.93 194.382C240.975 272.838 233.373 348.943 233.373 348.943C233.373 348.943 376.151 338.728 377.484 338.231V338.205Z" fill="#3E3533"/>
<path d="M281.216 152.135C281.216 152.135 271.001 151.691 269.146 152.841C267.291 153.99 262.64 167.419 261.7 169.535C260.759 171.651 274.136 184.139 274.136 184.139C274.136 184.139 263.111 202.245 263.581 203.708C264.051 205.171 283.593 284.28 283.593 284.28C283.593 284.28 330.986 213.583 331.952 210.056C332.919 206.556 327.407 188.346 327.407 188.346C327.407 188.346 341.436 178 342.298 175.753C343.161 173.506 344.937 159.085 342.298 157.256C340.679 156.132 331.247 154.016 331.247 154.016L281.242 152.135H281.216Z" fill="#302624"/>
<path d="M326.282 160.078L283.383 277.854L278.289 160.078H326.282Z" fill="white"/>
<path d="M306.446 180.954L297.145 188.347L298.817 235.452L283.377 277.855L281.652 238.143L288.132 187.642L283.429 177.897L294.193 171.914L306.446 180.954Z" fill="#0068D2"/>
<path d="M321.142 156.477L326.289 106.445L288.145 125.857L288.51 127.686L289.581 152.845C289.895 160.03 289.581 167.319 297.158 168.521C306.198 169.984 320.279 164.758 321.142 156.45V156.477Z" fill="#FBC0A4"/>
<path d="M289.163 143.309L288.51 127.686L288.145 125.857L326.289 106.445L323.859 130.037C317.04 140.278 303.585 143.335 289.19 143.283L289.163 143.309Z" fill="#F69D7D"/>
<path d="M262.744 85.7545C262.927 73.841 262.196 56.7024 266.951 44.2142C266.951 44.2142 266.951 44.2142 266.951 44.1881C266.951 44.1881 266.951 44.1881 266.951 44.1619C269.067 38.6755 272.228 34.1296 277.009 31.308C282.234 27.5458 289.523 25.1161 300.444 24.2278C323.409 22.399 338.327 30.9944 348.307 45.9385C355.753 57.0681 352.565 71.6987 351.05 76.9761C355.282 77.368 361.187 79.9284 359.854 91.5544C357.791 109.32 344.937 109.66 341.148 110.443C341.148 110.443 334.068 142.082 295.062 139.051C256.03 136.021 262.431 105.819 262.718 85.7806L262.744 85.7545Z" fill="#FBC0A4"/>
<path d="M289.605 99.4122C290.546 98.968 291.695 99.3861 292.74 99.8302C293.733 100.353 294.804 101.006 295.039 101.999C295.118 102.495 294.804 103.044 294.046 103.357C293.315 103.671 292.192 103.671 291.146 103.174C290.101 102.678 289.396 101.79 289.187 101.032C288.952 100.248 289.187 99.6734 289.605 99.4122Z" fill="#F69D7D"/>
<path d="M315.546 84.6853C315.677 87.5069 313.508 89.8844 310.687 90.0151C307.865 90.1457 305.488 87.9772 305.357 85.1556C305.227 82.334 307.395 79.9565 310.217 79.8259C313.038 79.6953 315.416 81.8637 315.546 84.6853Z" fill="#403433"/>
<path d="M288.449 84.6853C288.579 87.5069 286.411 89.8844 283.589 90.0151C280.768 90.1457 278.39 87.9772 278.26 85.1556C278.129 82.334 280.297 79.9565 283.119 79.8259C285.941 79.6953 288.318 81.8637 288.449 84.6853Z" fill="#403433"/>
<path d="M263.611 101.766C263.376 107.069 267.478 111.563 272.781 111.798C278.085 112.033 282.579 107.932 282.814 102.628C283.049 97.3244 278.947 92.8307 273.644 92.5956C268.34 92.3604 263.846 96.4622 263.611 101.766Z" fill="#F9B092"/>
<path d="M312.361 103.153C312.126 108.456 316.228 112.95 321.531 113.185C326.835 113.42 331.329 109.318 331.564 104.015C331.799 98.7111 327.697 94.2174 322.393 93.9823C317.09 93.7471 312.596 97.8489 312.361 103.153Z" fill="#F9B092"/>
<path d="M354.81 85.0952C356.168 89.7979 354.235 94.7618 352.354 99.2555C351.779 100.588 351.178 101.999 349.977 102.835C348.775 103.645 346.815 103.54 346.188 102.208C345.587 100.928 346.476 99.5168 347.181 98.2888C347.887 97.0609 348.278 95.2321 347.103 94.4744C346.554 94.1087 345.822 94.1609 345.248 93.8474C343.994 93.1943 343.994 91.3916 344.333 90.0069C344.777 88.0997 345.483 86.2448 346.45 84.4943C347.39 82.7961 348.853 81.0718 350.787 81.0979C352.798 81.1241 354.261 83.1097 354.836 85.0691L354.81 85.0952Z" fill="#F9B092"/>
<path d="M289.024 110.723C289.521 109.835 293.44 111.298 297.698 109.887C301.983 108.581 304.334 105.133 305.275 105.551C305.719 105.733 305.745 107.014 304.778 108.738C303.838 110.436 301.8 112.474 298.822 113.414C295.869 114.355 292.995 113.885 291.271 113.049C289.495 112.213 288.789 111.168 289.024 110.75V110.723Z" fill="#F69D7D"/>
<path d="M321.947 148.401C321.947 148.401 302.535 169.955 297.127 168.518C291.719 167.081 289.342 148.035 289.342 148.035C289.342 148.035 277.533 150.569 276.2 152.895C274.868 155.22 274.163 177.871 278.108 181.999C282.053 186.153 295.011 174.501 295.011 174.501C295.011 174.501 306.115 188.896 312.306 187.511C318.498 186.127 332.685 158.695 333.599 155.429C334.513 152.163 321.921 148.375 321.921 148.375L321.947 148.401Z" fill="white"/>
<path d="M318.577 73.4206C315.103 76.2944 299.662 73.708 301.439 68.6134C303.189 63.5188 324.534 68.5089 318.577 73.4206Z" fill="#403433"/>
<path d="M290.309 70.9122C287.801 74.6482 272.256 76.5292 272.491 71.1734C272.726 65.7915 294.62 64.5113 290.309 70.9122Z" fill="#403433"/>
<path d="M249.864 22.552C257.153 1.7296 280.693 -5.7424 299.922 4.65573C321.005 16.0728 348.829 4.44669 348.855 4.42056C347.68 7.39892 343.657 12.3629 342.794 13.9827C358.313 18.1106 360.09 27.0195 360.09 27.0195C377.49 26.497 361.918 39.7429 361.918 39.7429C370.226 47.6852 353.48 77.4165 353.48 77.4165C342.167 74.4904 338.901 95.365 338.901 95.365L333.702 93.9542V82.4588C324.036 75.9535 328.477 57.2734 328.477 57.2734C327.85 58.3968 322.076 57.7959 321.136 57.6914C315.806 57.1166 312.227 52.1265 307.028 51.2383C301.019 50.2194 295.323 54.4518 289.785 56.0716C283.41 57.9265 276.382 58.4229 269.877 56.9337C254.358 53.4067 244.482 37.9402 249.864 22.5259V22.552Z" fill="#403433"/>
<path d="M298.771 313.939C293.964 315.272 291.142 320.236 292.475 325.043C293.807 329.85 298.771 332.672 303.578 331.339C308.385 330.007 311.207 325.043 309.874 320.236C308.542 315.429 303.578 312.607 298.771 313.939Z" fill="#FBC0A4"/>
<path d="M298.772 313.935C298.824 314.353 293.913 312.316 293.573 312.08C291.875 310.983 290.542 309.337 288.714 308.527C285.578 307.117 282.287 306.045 278.942 305.34C275.99 304.739 273.142 304.138 270.974 306.751C270.295 307.587 269.798 308.553 269.067 309.337C267.787 310.696 265.932 311.323 264.103 311.662C262.274 312.002 260.393 312.054 258.59 312.525C255.324 313.387 252.451 315.581 250.517 318.351C248.558 321.12 247.487 324.438 247.069 327.808C246.834 329.663 247.853 330.787 249.525 331.335C254.515 333.007 259.714 334.052 264.939 334.653C269.459 335.176 274.24 334.601 278.812 334.288C286.414 333.739 294.278 334.627 294.278 334.627L298.824 313.935H298.772Z" fill="#FBC0A4"/>
<path d="M371.037 311.477C372.683 313.149 374.59 314.508 376.732 315.527C381.565 317.826 386.999 318.087 392.016 316.311C397.058 314.508 401.081 310.876 403.38 306.043C406.96 298.493 405.444 289.401 399.592 283.444C397.946 281.772 396.039 280.414 393.897 279.395C389.064 277.096 383.629 276.834 378.613 278.611C373.571 280.413 369.547 284.045 367.248 288.878C363.669 296.429 365.184 305.521 371.037 311.477Z" fill="#3E3533"/>
<path d="M303.164 333.321L294.229 334.627L292.348 309.781L301.283 309.886L303.164 333.321Z" fill="white"/>
<path d="M302.406 336.244C317.821 335.696 387.342 317.46 390.503 316.781L394.526 315.213L382.508 277.461L379.974 278.192C379.504 278.323 368.087 281.641 349.276 290.08C344.521 292.222 296.789 306.069 296.789 306.069L300.003 336.401L302.406 336.244Z" fill="#3E3533"/>
<path d="M364.395 221.97C366.955 222.832 369.646 223.25 372.39 223.171C378.555 223.015 384.303 220.48 388.561 215.987C392.82 211.519 395.067 205.641 394.91 199.475C394.675 189.809 388.352 181.239 379.208 178.156C376.648 177.294 373.957 176.876 371.214 176.955C358.464 177.268 348.354 187.901 348.667 200.651C348.902 210.317 355.225 218.887 364.369 221.97H364.395Z" fill="#3E3533"/>
<path d="M405.107 300.582L405.342 297.055C405.263 293.999 403.2 221.708 393.873 193.152L393.089 190.723L348.988 203.916L349.563 206.32C357.636 239.604 364.768 291.151 365.369 298.205L365.578 300.661L405.107 300.582Z" fill="#3E3533"/>
<path d="M378.926 316.497C385.823 318.822 393.426 317.228 398.808 312.343C406.959 304.923 407.56 292.252 400.14 284.101C397.868 281.593 394.968 279.685 391.754 278.614C384.857 276.289 377.254 277.883 371.872 282.768C367.927 286.374 365.602 291.285 365.341 296.615C365.079 301.945 366.934 307.065 370.514 311.01C372.787 313.518 375.687 315.426 378.874 316.497H378.926Z" fill="#3E3533"/>
<path d="M142.585 312.763C137.83 314.278 135.218 319.347 136.759 324.102C138.274 328.857 143.343 331.469 148.098 329.928C152.853 328.413 155.465 323.344 153.924 318.589C152.409 313.834 147.34 311.222 142.585 312.763Z" fill="#FBC0A4"/>
<path d="M142.585 312.76C142.664 313.178 137.673 311.349 137.308 311.14C135.583 310.095 134.146 308.527 132.318 307.77C129.13 306.49 125.812 305.549 122.416 305C119.437 304.53 116.564 304.034 114.5 306.725C113.847 307.587 113.402 308.58 112.697 309.363C111.469 310.774 109.64 311.48 107.811 311.872C105.983 312.263 104.128 312.42 102.351 312.969C99.1115 313.962 96.3422 316.261 94.5133 319.108C92.6845 321.956 91.7178 325.326 91.4566 328.697C91.2998 330.552 92.371 331.649 94.0692 332.119C99.1376 333.582 104.363 334.418 109.614 334.81C114.16 335.15 118.915 334.392 123.461 333.87C131.011 333.007 138.562 331.753 146.086 330.29C146.086 330.29 142.637 312.734 142.637 312.708L142.585 312.76Z" fill="#FBC0A4"/>
<path d="M214.698 307.376C216.397 308.969 218.382 310.276 220.551 311.19C225.462 313.28 230.896 313.332 235.86 311.347C240.824 309.361 244.691 305.547 246.781 300.635C250.073 292.954 248.166 283.941 242.078 278.219C240.38 276.625 238.395 275.319 236.226 274.405C231.314 272.315 225.88 272.262 220.916 274.248C215.952 276.233 212.086 280.048 209.996 284.96C206.73 292.641 208.611 301.654 214.698 307.376Z" fill="#3E3533"/>
<path d="M147.757 331.932L138.9 333.604L136 308.863L144.935 308.602L147.757 331.932Z" fill="white"/>
<path d="M147.129 334.912C162.517 333.737 231.228 312.705 234.363 311.895L238.334 310.171L224.801 272.941L222.293 273.777C221.823 273.934 210.563 277.696 192.118 286.893C187.441 289.218 140.336 304.998 140.336 304.998L144.777 335.173L147.155 334.912H147.129Z" fill="#3E3533"/>
<path d="M273.281 160.812H75.8212C70.5546 160.812 66.2852 165.082 66.2852 170.348V295.701C66.2852 300.967 70.5546 305.237 75.8212 305.237H273.281C278.548 305.237 282.817 300.967 282.817 295.701V170.348C282.817 165.082 278.548 160.812 273.281 160.812Z" fill="#F8E8D8"/>
<path d="M223.384 328.328H114.047V334.259H223.384V328.328Z" fill="#F8E8D8"/>
<path d="M252.752 328.328H223.387V334.259H252.752V328.328Z" fill="white"/>
<path d="M179.339 334.266L193.107 253.902H157.811L144.043 334.266H179.339Z" fill="#F8E8D8"/>
<path d="M33.2013 373.055L14.8086 605.994H20.9482L60.3462 373.055H33.2013Z" fill="#52342D"/>
<path d="M395.627 343.008H11.4453V380.655H395.627V343.008Z" fill="#52342D"/>
<path d="M417.389 373.055L398.996 605.994H405.162L444.534 373.055H417.389Z" fill="#623A33"/>
<path d="M511.356 373.055L529.749 605.994H523.583L484.211 373.055H511.356Z" fill="#623A33"/>
<path d="M542.162 334.258H0.257812V343.01H542.162V334.258Z" fill="white"/>
<path d="M395.593 380.656H531.004V343.009H395.593V380.656Z" fill="#623A33"/>
</svg>
