<svg width="555" height="1086" viewBox="0 0 555 1086" fill="none" xmlns="http://www.w3.org/2000/svg">
<path d="M236.086 1012.22L234.099 1035.63L225.88 1050.9L199.86 1042.25L196.199 1024.88L197.718 997.887L236.086 1012.22Z" fill="#302624"/>
<path d="M130.051 1051.99C139.01 1047.78 166.744 1039.72 187.35 1024.92C189.609 1023.28 192.336 1022.7 194.868 1023.16L196.27 1023.44C196.27 1023.44 197.088 1035.98 210.293 1040.42C219.174 1043.42 234.093 1035.63 234.093 1035.63L232.34 1068.85H125.377C123.351 1067.73 122.962 1065.43 122.962 1065.43C122.962 1065.43 118.638 1057.36 130.051 1052.03V1051.99Z" fill="#302624"/>
<path d="M375.338 1030.54L369.962 1001.71L337.125 1006.5L338.878 1033.53C338.878 1033.53 345.072 1045.65 362.289 1045.92C379.506 1046.19 375.338 1030.5 375.338 1030.5V1030.54Z" fill="#302624"/>
<path d="M346.005 1035.24C358.937 1023.05 370.428 1033.33 370.428 1033.33L375.336 1030.57C382.464 1041.24 396.136 1054.02 397.85 1060.29C401.122 1072.17 395.318 1086 376.154 1086C356.989 1086 339.5 1074.59 337.474 1065.31C336.267 1059.78 338.253 1044.75 338.838 1033.61L345.966 1035.28L346.005 1035.24Z" fill="#302624"/>
<path d="M399.29 783.738L387.76 1024.89C387.76 1024.89 355.819 1034.08 327.734 1025.9L323.683 783.738H399.29Z" fill="#302624"/>
<path d="M317.294 561.429C311.841 537.408 326.893 513.515 350.914 508.062C374.935 502.609 398.829 517.661 404.282 541.682C409.735 565.703 394.682 589.596 370.661 595.049C346.641 600.502 322.747 585.45 317.294 561.429Z" fill="#302624"/>
<path d="M323.684 783.726L316.166 551.609H405.406L399.291 783.726H323.684Z" fill="#302624"/>
<path d="M324.665 792.443C319.884 772.108 332.493 751.748 352.827 746.968C373.162 742.187 393.522 754.796 398.302 775.13C403.083 795.465 390.474 815.825 370.14 820.605C349.805 825.386 329.445 812.777 324.665 792.443Z" fill="#302624"/>
<path d="M279.086 785.571L246.522 1024.78C246.522 1024.78 213.919 1031.13 186.613 1020.57L203.752 778.988L279.086 785.571Z" fill="#302624"/>
<path d="M223.079 546.48C220.236 570.942 237.803 593.106 262.265 595.911C286.727 598.754 308.891 581.187 311.696 556.725C314.539 532.262 296.972 510.099 272.51 507.294C248.048 504.451 225.884 522.018 223.079 546.48Z" fill="#302624"/>
<path d="M203.873 777.935L223.076 546.48L311.693 556.725L278.973 786.622L203.873 777.935Z" fill="#302624"/>
<path d="M203.756 778.984C201.925 799.785 217.312 818.131 238.112 819.962C258.913 821.793 277.259 806.407 279.09 785.606C280.921 764.806 265.535 746.459 244.734 744.628C223.933 742.798 205.587 758.184 203.756 778.984Z" fill="#302624"/>
<path d="M222.61 506.977H267.717C267.717 506.977 267.989 506.977 268.106 506.977H360.618C360.618 506.977 360.735 506.977 360.813 506.977C360.891 506.977 360.93 506.977 361.008 506.977H405.452V551.889C405.296 576.39 385.392 596.216 360.852 596.216H267.444C265.73 596.216 264.055 596.138 262.302 595.905C239.671 593.295 222.96 574.13 222.844 551.889H222.649V506.977H222.61Z" fill="#302624"/>
<path d="M222.61 506.977H267.717C267.717 506.977 267.989 506.977 268.106 506.977H360.618C360.618 506.977 360.735 506.977 360.813 506.977C360.891 506.977 360.93 506.977 361.008 506.977H405.452V551.889C405.296 576.39 385.392 596.216 360.852 596.216H267.444C265.73 596.216 264.055 596.138 262.302 595.905C239.671 593.295 222.96 574.13 222.844 551.889H222.649V506.977H222.61Z" fill="#302624"/>
<path d="M197.174 298.149C193.1 281.76 203.083 265.172 219.472 261.098C235.861 257.024 252.449 267.007 256.523 283.396C260.597 299.785 250.614 316.373 234.225 320.447C217.837 324.521 201.248 314.538 197.174 298.149Z" fill="#FBC0A4"/>
<path d="M394.031 305.196C390.195 288.75 400.417 272.308 416.863 268.472C433.309 264.635 449.751 274.858 453.588 291.304C457.424 307.75 447.202 324.192 430.755 328.028C414.309 331.864 397.867 321.642 394.031 305.196Z" fill="#FBC0A4"/>
<path d="M418.098 316.022L397.998 415.273L413.345 540.855C413.345 540.855 316.159 577.704 216.285 546.737C216.285 546.737 221.505 401.717 230.854 288.016L205.807 268.656C227.815 248.245 305.058 221.212 326.715 224.64C360.799 230.015 445.403 269.981 447.935 279.563L418.098 316.061V316.022Z" fill="#FBC0A4"/>
<path d="M226.846 325.274C239.038 325.274 250.061 319.041 256.372 308.641C266.227 292.359 260.968 271.13 244.725 261.314C239.349 258.042 233.195 256.328 226.924 256.328C214.732 256.328 203.708 262.56 197.398 272.961C192.646 280.829 191.204 290.1 193.425 299.059C195.645 308.018 201.176 315.536 209.045 320.327C214.42 323.599 220.574 325.313 226.846 325.313V325.274Z" fill="#3E3533"/>
<path d="M423.794 332.789C404.755 332.789 389.321 317.355 389.321 298.317C389.321 279.278 404.755 263.844 423.794 263.844C442.833 263.844 458.267 279.278 458.267 298.317C458.267 317.355 442.833 332.789 423.794 332.789Z" fill="#F8E8D8"/>
<path d="M301.801 563.035C365.176 563.035 412.776 545.273 414.763 544.494L417.606 543.403L401.947 415.445L421.696 317.752L452.196 280.475L451.689 278.566C448.262 265.634 358.204 225.708 327.315 220.8C325.873 220.566 324.198 220.449 322.368 220.449C295.646 220.449 224.714 245.768 203.135 265.79L199.94 269.257L226.779 289.823C217.664 402.006 212.444 545.195 212.366 546.636L212.249 549.596L215.093 550.492C241.97 558.828 271.106 563.074 301.723 563.074L301.801 563.035Z" fill="#3E3533"/>
<path d="M288.362 226.845C288.362 226.845 273.132 226.182 270.366 227.896C267.601 229.61 260.667 249.632 259.265 252.787C257.863 255.942 277.806 274.561 277.806 274.561C277.806 274.561 261.368 301.555 262.069 303.736C262.771 305.918 291.907 423.865 291.907 423.865C291.907 423.865 362.566 318.46 364.008 313.202C365.449 307.982 357.23 280.832 357.23 280.832C357.23 280.832 378.147 265.407 379.433 262.057C380.718 258.708 383.367 237.206 379.433 234.479C377.018 232.804 362.956 229.649 362.956 229.649L288.401 226.845H288.362Z" fill="#302624"/>
<path d="M355.545 238.676L291.547 414.273L283.99 238.676H355.545Z" fill="white"/>
<path d="M325.981 269.806L312.114 280.829V357.916L291.547 414.28L289.015 355.072L298.675 279.777L291.625 265.248L307.673 256.328L325.981 269.806Z" fill="#0068D2"/>
<path d="M347.841 233.293L355.514 158.699L298.644 187.641L299.189 190.367L300.786 227.879C301.254 238.59 300.786 249.458 312.082 251.25C325.56 253.431 346.555 245.641 347.841 233.254V233.293Z" fill="#FBC0A4"/>
<path d="M300.194 213.661L299.22 190.367L298.674 187.641L355.545 158.699L351.922 193.873C341.756 209.104 321.695 213.7 300.233 213.622L300.194 213.661Z" fill="#F69D7D"/>
<path d="M260.777 127.85C261.01 110.087 259.959 84.5346 267.048 65.9154C267.048 65.9154 267.048 65.9154 267.048 65.8765C267.048 65.8765 267.048 65.8765 267.048 65.8375C270.203 57.6575 274.916 50.8798 282.045 46.673C289.835 41.0638 300.703 37.4413 316.985 36.1169C351.224 33.3902 373.466 46.2056 388.346 68.4863C399.447 85.08 394.695 106.893 392.436 114.762C398.746 115.346 407.549 119.163 405.562 136.497C402.485 162.985 383.321 163.491 377.673 164.66C377.673 164.66 367.117 211.831 308.961 207.312C250.766 202.794 260.309 157.765 260.738 127.889L260.777 127.85Z" fill="#FBC0A4"/>
<path d="M300.851 148.212C300.189 148.602 299.877 149.459 300.227 150.627C300.539 151.757 301.591 153.081 303.149 153.821C304.707 154.561 306.421 154.561 307.473 154.094C308.563 153.627 309.07 152.809 308.953 152.069C308.602 150.549 307.005 149.615 305.525 148.835C303.967 148.173 302.253 147.55 300.851 148.212Z" fill="#F69D7D"/>
<path d="M339.544 126.254C339.739 130.46 336.506 134.005 332.299 134.2C328.092 134.395 324.548 131.161 324.353 126.955C324.158 122.748 327.391 119.203 331.598 119.008C335.805 118.814 339.35 122.047 339.544 126.254Z" fill="#403433"/>
<path d="M299.147 126.254C299.342 130.46 296.109 134.005 291.902 134.2C287.695 134.395 284.15 131.161 283.955 126.955C283.761 122.748 286.994 119.203 291.201 119.008C295.407 118.814 298.952 122.047 299.147 126.254Z" fill="#403433"/>
<path d="M262.066 151.769C261.716 159.676 267.831 166.376 275.738 166.726C283.646 167.077 290.346 160.961 290.696 153.054C291.047 145.147 284.931 138.447 277.024 138.096C269.116 137.746 262.417 143.861 262.066 151.769Z" fill="#F9B092"/>
<path d="M334.782 153.792C334.432 161.699 340.547 168.399 348.455 168.75C356.362 169.1 363.062 162.985 363.412 155.078C363.763 147.17 357.647 140.47 349.74 140.12C341.833 139.769 335.133 145.885 334.782 153.792Z" fill="#F9B092"/>
<path d="M398.078 126.866C400.103 133.878 397.221 141.279 394.416 147.979C393.559 149.965 392.663 152.069 390.872 153.315C389.08 154.523 386.158 154.367 385.223 152.38C384.328 150.472 385.652 148.368 386.704 146.537C387.755 144.707 388.34 141.98 386.587 140.85C385.769 140.305 384.678 140.383 383.821 139.915C381.951 138.942 381.951 136.254 382.458 134.189C383.12 131.346 384.172 128.58 385.613 125.97C387.015 123.439 389.197 120.868 392.079 120.907C395.078 120.946 397.26 123.906 398.117 126.827L398.078 126.866Z" fill="#F9B092"/>
<path d="M300.003 165.093C299.613 165.716 300.704 167.274 303.353 168.521C305.924 169.767 310.208 170.507 314.61 169.105C319.012 167.703 322.089 164.625 323.491 162.132C324.932 159.562 324.893 157.692 324.231 157.38C322.868 156.757 319.362 161.899 312.974 163.846C306.625 165.95 300.782 163.768 300.042 165.093H300.003Z" fill="#F69D7D"/>
<path d="M344.049 109.498C338.868 113.782 315.848 109.926 318.496 102.33C321.106 94.7347 352.93 102.175 344.049 109.498Z" fill="#403433"/>
<path d="M301.908 105.718C298.169 111.288 274.992 114.093 275.343 106.107C275.693 98.0833 308.335 96.1746 301.908 105.718Z" fill="#403433"/>
<path d="M241.612 33.6238C252.48 2.57877 287.576 -8.56161 316.245 6.94142C347.679 23.9636 389.164 6.6298 389.202 6.59085C387.45 11.0314 381.451 18.4324 380.166 20.8474C403.303 27.0019 405.952 40.2846 405.952 40.2846C431.894 39.5056 408.679 59.2544 408.679 59.2544C421.065 71.0959 396.097 115.424 396.097 115.424C379.231 111.061 374.362 142.184 374.362 142.184L366.61 140.081V122.941C352.198 113.242 358.82 85.3914 358.82 85.3914C357.885 87.0664 349.276 86.1705 347.874 86.0147C339.928 85.1577 334.591 77.7178 326.84 76.3934C317.881 74.8743 309.389 81.1846 301.131 83.5996C291.627 86.3652 281.149 87.1053 271.45 84.8851C248.312 79.6265 233.588 56.5667 241.612 33.5848V33.6238Z" fill="#403433"/>
<path d="M349.087 221.268C349.087 221.268 320.146 253.404 312.082 251.261C304.019 249.119 300.475 220.723 300.475 220.723C300.475 220.723 282.868 224.501 280.882 227.968C278.895 231.435 277.843 265.206 283.725 271.361C289.607 277.554 308.927 260.181 308.927 260.181C308.927 260.181 325.482 281.644 334.714 279.58C343.946 277.515 365.097 236.615 366.46 231.746C367.823 226.877 349.048 221.229 349.048 221.229L349.087 221.268Z" fill="white"/>
<path d="M152.048 511.963L297.612 601.536L374.58 538.673L229.906 448.223L152.048 511.963Z" fill="white"/>
<path d="M398.587 304.613C400.1 321.422 414.949 333.853 431.787 332.314C448.595 330.801 461.027 315.952 459.488 299.114C457.974 282.306 443.126 269.874 426.288 271.413C409.479 272.927 397.048 287.775 398.587 304.613Z" fill="#FBC0A4"/>
<path d="M432.079 440.136C433.383 454.39 445.961 464.925 460.215 463.621C474.495 462.347 485.004 449.739 483.7 435.485C482.396 421.231 469.818 410.697 455.564 412.001C441.284 413.275 430.775 425.882 432.079 440.136Z" fill="#FBC0A4"/>
<path d="M400.272 312.128C415.437 360.64 430.378 429.125 432.071 440.148L483.692 435.497C483.692 435.497 474.188 332.38 457.572 290.863L400.272 312.128Z" fill="#FBC0A4"/>
<path d="M447.298 414.143C434.219 420.001 428.382 435.307 434.211 448.411C440.069 461.489 455.375 467.326 468.479 461.498C481.583 455.669 487.394 440.334 481.566 427.23C475.707 414.151 460.402 408.314 447.298 414.143Z" fill="#FBC0A4"/>
<path d="M341.108 478.314C334.329 481.323 331.292 489.285 334.327 496.094C337.336 502.874 345.298 505.91 352.107 502.875C358.887 499.866 361.923 491.904 358.889 485.095C355.879 478.316 347.917 475.279 341.108 478.314Z" fill="#FBC0A4"/>
<path d="M341.114 478.321C357.494 472.636 378.304 455.607 405.209 438.283C431.104 421.579 447.302 414.142 447.302 414.142L468.457 461.467C468.457 461.467 365.671 500.067 349.153 503.754L341.144 478.295L341.114 478.321Z" fill="#FBC0A4"/>
<path d="M338.607 480.023C332.82 484.647 331.819 493.109 336.469 498.925C341.093 504.712 349.555 505.713 355.371 501.063C361.188 496.414 362.159 487.977 357.509 482.161C352.885 476.374 344.423 475.373 338.607 480.023Z" fill="#FBC0A4"/>
<path d="M303.99 528.168C306.821 530.352 308.875 533.78 313.196 533.582C317.96 533.36 322.593 528.656 326.173 526.005C337.029 517.95 347.181 508.907 356.942 499.533L338.579 480.039C338.144 479.54 325.819 481.695 324.408 481.735C318.16 481.855 311.792 478.928 305.569 477.89C298.991 476.799 292.426 474.715 285.709 474.83C277.332 474.995 277.935 478.239 278.562 485.13C279.57 496.492 268.819 500.634 260.541 506.134C258.313 507.609 255.798 509.643 256 512.308C256.177 514.529 258.357 516.143 260.558 516.655C262.733 517.137 265.021 516.798 267.26 516.76C273.229 516.677 279.221 519.052 283.545 523.19C285.903 525.424 288.156 528.368 291.399 528.593C294.725 528.796 297.877 525.95 301.107 526.753C302.22 527.024 303.149 527.557 304.012 528.252L303.99 528.168Z" fill="#FBC0A4"/>
<path d="M451.674 327.857C459.989 320.619 464.389 309.715 463.41 298.741C462.609 289.575 458.241 281.293 451.169 275.364C444.124 269.464 435.179 266.663 425.983 267.489C418.704 268.145 411.961 271.018 406.467 275.801C398.152 283.038 393.752 293.942 394.731 304.916C396.43 323.836 413.238 337.866 432.158 336.168C439.437 335.513 446.179 332.639 451.674 327.857Z" fill="#3E3533"/>
<path d="M477.416 460.324C484.614 454.058 488.413 444.658 487.525 435.154C486.806 427.208 483.05 420.045 476.944 414.929C470.838 409.812 463.109 407.399 455.163 408.119C448.884 408.677 443.026 411.143 438.266 415.286C431.067 421.551 427.269 430.952 428.127 440.481C428.846 448.427 432.602 455.59 438.708 460.707C444.814 465.823 452.543 468.236 460.49 467.517C466.768 466.958 472.63 464.437 477.361 460.32L477.416 460.324Z" fill="#3E3533"/>
<path d="M487.593 435.15C487.197 430.898 477.828 331.021 461.22 289.394L459.807 285.873L395.48 309.743L396.588 313.271C411.749 361.838 426.588 429.791 428.26 440.73L428.811 444.33L487.96 439.013L487.622 435.124L487.593 435.15Z" fill="#3E3533"/>
<path d="M477.48 460.325C487.441 451.656 490.504 437.732 485.101 425.651C481.852 418.358 475.941 412.813 468.517 409.979C461.093 407.146 452.961 407.355 445.723 410.609C443.016 411.829 440.531 413.424 438.327 415.342C428.367 424.012 425.304 437.935 430.706 450.016C437.424 465.032 455.069 471.776 470.084 465.058C472.792 463.838 475.277 462.243 477.48 460.325Z" fill="#3E3533"/>
<path d="M342.758 471.357L329.97 478.201L346.018 512.362L357.713 506.159L342.758 471.357Z" fill="#EFEEFF"/>
<path d="M449.251 408.984L445.66 410.612C445.003 410.926 429.565 419.354 403.108 434.997C386.123 445.03 336.658 470.372 336.658 470.372L357.046 512.84C357.046 512.84 465.601 466.688 469.823 465.131L473.707 463.661L449.251 408.984Z" fill="#3E3533"/>
<path d="M71.9009 314.822C66.585 309.627 58.1056 309.73 52.9015 315.008C47.7058 320.324 47.8098 328.804 53.0877 334.008C58.3656 339.212 66.8829 339.099 72.0871 333.822C77.2827 328.506 77.1788 320.026 71.9009 314.822Z" fill="#FBC0A4"/>
<path d="M16.1143 290.12C17.4236 289.907 18.9617 290.001 20.1944 289.446C22.9934 288.22 23.2989 284.239 22.0728 281.44C20.8468 278.641 18.54 276.364 17.504 273.522C16.9012 271.901 16.8089 269.886 18.0108 268.658C20.891 265.658 30.5065 272.405 29.5166 264.603C28.8994 259.711 13.1306 242.607 9.48387 237.557C8.60707 236.316 7.68769 234.886 8.04424 233.448C8.49319 231.711 10.6761 230.942 12.4134 231.391C14.1507 231.84 15.4796 233.139 16.7621 234.409C28.2071 245.935 38.7032 258.393 48.1022 271.655C50.021 274.338 52.5741 277.359 55.818 276.872C57.668 276.577 59.1779 275.121 59.9945 273.421C62.4613 268.397 62.1351 263.201 67.1774 259.516C70.1985 257.322 81.9389 254.491 77.8199 261.761C76.0425 264.874 74.2652 267.987 72.4878 271.1C70.4214 275.595 67.8792 280.995 67.6556 285.875C67.1395 297.287 69.9525 310.908 71.9072 314.821L54.8162 335.457C53.3076 335.316 50.1956 331.582 49.1038 330.63C44.8089 326.962 40.5519 323.285 36.3245 319.562C28.4705 312.66 19.6113 305.903 14.5373 296.621C13.5963 294.916 12.8107 292.657 14.084 291.214C14.6194 290.575 15.3626 290.329 16.1693 290.188L16.1143 290.12Z" fill="#FBC0A4"/>
<path d="M210.176 328.876C227.588 336.471 247.96 328.447 255.555 311.036C263.151 293.624 255.127 273.252 237.715 265.656C220.303 258.06 199.931 266.085 192.336 283.496C184.74 300.908 192.764 321.28 210.176 328.876Z" fill="#3E3533"/>
<path d="M176.137 439.731L177.812 436.459C182.603 427.072 221.322 359.84 251.198 318.356L253.34 315.357L199.508 272.938L197.366 275.314C180.071 300.087 125.07 408.219 123.24 412.426L121.681 416.009L176.137 439.731Z" fill="#3E3533"/>
<path d="M138.702 451.693C151.128 457.107 165.657 453.446 174.032 442.734C184.198 429.802 181.9 411.026 168.968 400.86C166.942 399.302 164.761 397.977 162.463 396.965C150.037 391.55 135.508 395.212 127.094 405.885C116.928 418.817 119.226 437.592 132.158 447.759C134.183 449.317 136.365 450.641 138.663 451.654L138.702 451.693Z" fill="#3E3533"/>
<path d="M58.0346 343.357L46.4269 335.255L73.7714 305.105L85.1455 319.05L58.0346 343.357Z" fill="white"/>
<path d="M123.545 408.337C114.119 421.775 117.352 440.433 130.829 449.86C144.268 459.286 162.926 456.053 172.352 442.576C181.779 429.137 178.546 410.479 165.068 401.052C151.591 391.626 132.972 394.859 123.545 408.337Z" fill="#3E3533"/>
<path d="M125.183 444.756L127.715 447.794L173.367 408.998L170.523 405.998C167.212 402.532 83.7373 305.93 83.7373 305.93L48.3687 341.337C48.3687 341.337 124.754 444.171 125.222 444.756H125.183Z" fill="#3E3533"/>
</svg>
