<svg width="607" height="502" viewBox="0 0 607 502" fill="none" xmlns="http://www.w3.org/2000/svg">
<path d="M194.14 410.755L177.524 576.42C177.524 576.42 150.405 580.678 132.117 573.598L143.613 406.34L194.14 410.755Z" fill="#302624"/>
<path d="M143.65 406.314C142.422 420.265 152.742 432.571 166.693 433.799C180.644 435.027 192.95 424.707 194.178 410.756C195.406 396.804 185.086 384.499 171.134 383.271C157.183 382.043 144.878 392.363 143.65 406.314Z" fill="#302624"/>
<path d="M430.059 135.336H281.951L273.748 355.813C275.655 381.939 254.989 404.198 228.785 404.198H376.893C403.098 404.198 423.763 381.939 421.856 355.813L430.059 135.336Z" fill="#A3857A"/>
<path d="M434.169 135.336H430.067L421.864 355.813C423.771 381.939 403.105 404.198 376.901 404.198H194.516V408.3H376.901C390.513 408.3 403.654 402.578 412.929 392.598C422.203 382.618 426.932 369.111 425.939 355.525L434.169 135.362V135.336Z" fill="#A3857A"/>
<path d="M373.557 404.172H194.516V408.274H373.557V404.172Z" fill="#A3857A"/>
<path d="M412.927 392.573C409.27 396.518 404.985 399.758 400.309 402.292L419.355 605.996H425.52L413.084 392.391C413.084 392.391 412.98 392.521 412.927 392.573Z" fill="#A3857A"/>
<path d="M336.925 408.273L316.051 605.995H322.216L350.145 408.273H336.925Z" fill="#A3857A"/>
<path d="M209.246 408.273L188.371 605.995H194.511L222.465 408.273H209.246Z" fill="#A3857A"/>
<path d="M162.641 383.795C149.081 387.244 140.878 401.064 144.326 414.624C147.775 428.183 161.596 436.387 175.155 432.938C188.714 429.489 196.918 415.669 193.469 402.109C190.021 388.55 176.2 380.346 162.641 383.795Z" fill="#302624"/>
<path d="M281.328 339.12C265.312 343.195 255.646 359.498 259.721 375.513C263.797 391.528 280.1 401.195 296.115 397.119C312.13 393.044 321.797 376.741 317.721 360.726C313.645 344.711 297.343 335.044 281.328 339.12Z" fill="#302624"/>
<path d="M162.645 383.796L281.335 339.121L296.096 397.121L175.159 432.939L162.645 383.796Z" fill="#302624"/>
<path d="M277.906 338.203H308.16C308.16 338.203 308.343 338.203 308.421 338.203H370.47C370.47 338.203 370.549 338.203 370.601 338.203C370.653 338.203 370.679 338.203 370.732 338.203H400.541V368.326C400.437 384.76 387.087 398.058 370.627 398.058H307.977C306.828 398.058 305.704 398.005 304.529 397.849C289.349 396.098 278.141 383.244 278.063 368.326H277.932V338.203H277.906Z" fill="#302624"/>
<path d="M277.906 338.203H308.16C308.16 338.203 308.343 338.203 308.421 338.203H370.47C370.47 338.203 370.549 338.203 370.601 338.203C370.653 338.203 370.679 338.203 370.732 338.203H400.541V368.326C400.437 384.76 387.087 398.058 370.627 398.058H307.977C306.828 398.058 305.704 398.005 304.529 397.849C289.349 396.098 278.141 383.244 278.063 368.326H277.932V338.203H277.906Z" fill="#302624"/>
<path d="M262.772 404.797L278.918 571.141C278.918 571.141 258.645 580.389 239.207 577.751L212.637 412.269L262.799 404.797H262.772Z" fill="#302624"/>
<path d="M212.612 412.269C214.676 426.116 227.582 435.678 241.429 433.614C255.276 431.55 264.838 418.644 262.774 404.797C260.71 390.95 247.804 381.388 233.957 383.452C220.11 385.516 210.548 398.422 212.612 412.269Z" fill="#302624"/>
<path d="M231.461 383.795C217.902 387.244 209.698 401.064 213.147 414.624C216.595 428.183 230.416 436.387 243.975 432.938C257.535 429.489 265.738 415.669 262.29 402.109C258.841 388.55 245.02 380.346 231.461 383.795Z" fill="#302624"/>
<path d="M363.191 339.12C347.176 343.195 337.509 359.498 341.585 375.513C345.66 391.528 361.963 401.195 377.978 397.119C393.993 393.044 403.66 376.741 399.584 360.726C395.509 344.711 379.206 335.044 363.191 339.12Z" fill="#302624"/>
<path d="M231.465 383.796L363.192 339.121L377.979 397.121L243.979 432.939L231.465 383.796Z" fill="#302624"/>
<path d="M267.931 214.898C278.923 212.165 285.619 201.039 282.887 190.047C280.154 179.055 269.028 172.359 258.036 175.091C247.044 177.824 240.348 188.95 243.08 199.942C245.813 210.934 256.939 217.63 267.931 214.898Z" fill="#FBC0A4"/>
<path d="M398.959 220.335C410.08 218.189 417.357 207.434 415.211 196.312C413.065 185.191 402.31 177.914 391.188 180.06C380.067 182.206 372.79 192.961 374.936 204.083C377.082 215.204 387.837 222.481 398.959 220.335Z" fill="#FBC0A4"/>
<path d="M262.981 218.157C275.73 218.157 286.102 207.785 286.102 195.036C286.102 182.286 275.73 171.914 262.981 171.914C250.231 171.914 239.859 182.286 239.859 195.036C239.859 207.785 250.231 218.157 262.981 218.157Z" fill="#3E3533"/>
<path d="M271.734 295.434L271.891 292.979C272.335 285.925 278.135 234.221 285.398 200.702L285.92 198.272L241.454 186.594L240.775 188.632C236.777 208.487 231.918 289.739 231.918 292.796V295.408H271.76L271.734 295.434Z" fill="#3E3533"/>
<path d="M251.903 312.81C260.995 312.81 268.937 306.644 271.236 297.84C274.005 287.181 267.578 276.234 256.919 273.438C255.273 273.02 253.575 272.785 251.877 272.785C242.785 272.785 234.817 278.925 232.544 287.755C229.774 298.415 236.175 309.361 246.861 312.157C248.507 312.601 250.231 312.81 251.903 312.81Z" fill="#3E3533"/>
<path d="M262.959 218.157C271.137 218.157 278.53 213.977 282.763 207.001C289.373 196.081 285.846 181.842 274.951 175.258C271.346 173.064 267.218 171.914 263.012 171.914C254.834 171.914 247.441 176.094 243.208 183.07C240.021 188.347 239.054 194.565 240.543 200.574C242.033 206.583 245.742 211.626 251.02 214.839C254.625 217.034 258.753 218.183 262.959 218.183V218.157Z" fill="#3E3533"/>
<path d="M403.795 221.384C415.624 216.574 421.314 203.085 416.503 191.256C411.693 179.427 398.204 173.737 386.375 178.548C374.546 183.358 368.857 196.847 373.667 208.676C378.478 220.505 391.966 226.194 403.795 221.384Z" fill="#F8E8D8"/>
<path d="M400.484 338.205L400.144 265.575L393.665 213.114L414.121 188.112L413.782 186.831C411.483 178.158 351.079 151.379 330.361 148.087C329.395 147.93 328.271 147.852 327.044 147.852C309.121 147.852 261.546 164.833 247.072 178.262L244.93 180.587L262.93 194.382C263.975 272.838 256.373 348.943 256.373 348.943C256.373 348.943 399.151 338.728 400.484 338.231V338.205Z" fill="#3E3533"/>
<path d="M304.216 152.135C304.216 152.135 294.001 151.691 292.146 152.841C290.291 153.99 285.64 167.419 284.7 169.535C283.759 171.651 297.136 184.139 297.136 184.139C297.136 184.139 286.111 202.245 286.581 203.708C287.051 205.171 306.593 284.28 306.593 284.28C306.593 284.28 353.986 213.583 354.952 210.056C355.919 206.556 350.407 188.346 350.407 188.346C350.407 188.346 364.436 178 365.298 175.753C366.161 173.506 367.937 159.085 365.298 157.256C363.679 156.132 354.247 154.016 354.247 154.016L304.242 152.135H304.216Z" fill="#302624"/>
<path d="M349.282 160.078L306.383 277.854L301.289 160.078H349.282Z" fill="white"/>
<path d="M329.446 180.954L320.145 188.347L321.817 235.452L306.377 277.855L304.652 238.143L311.132 187.642L306.429 177.897L317.193 171.914L329.446 180.954Z" fill="#0068D2"/>
<path d="M344.142 156.477L349.289 106.445L311.145 125.857L311.51 127.686L312.581 152.845C312.895 160.03 312.581 167.319 320.158 168.521C329.198 169.984 343.279 164.758 344.142 156.45V156.477Z" fill="#FBC0A4"/>
<path d="M312.163 143.309L311.51 127.686L311.145 125.857L349.289 106.445L346.859 130.037C340.04 140.278 326.585 143.335 312.19 143.283L312.163 143.309Z" fill="#F69D7D"/>
<path d="M285.744 85.7545C285.927 73.841 285.196 56.7024 289.951 44.2142C289.951 44.2142 289.951 44.2142 289.951 44.1881C289.951 44.1881 289.951 44.1881 289.951 44.1619C292.067 38.6755 295.228 34.1296 300.009 31.308C305.234 27.5458 312.523 25.1161 323.444 24.2278C346.409 22.399 361.327 30.9944 371.307 45.9385C378.753 57.0681 375.565 71.6987 374.05 76.9761C378.282 77.368 384.187 79.9284 382.854 91.5544C380.791 109.32 367.937 109.66 364.148 110.443C364.148 110.443 357.068 142.082 318.062 139.051C279.03 136.021 285.431 105.819 285.718 85.7806L285.744 85.7545Z" fill="#FBC0A4"/>
<path d="M312.605 99.4122C313.546 98.968 314.695 99.3861 315.74 99.8302C316.733 100.353 317.804 101.006 318.039 101.999C318.118 102.495 317.804 103.044 317.046 103.357C316.315 103.671 315.192 103.671 314.146 103.174C313.101 102.678 312.396 101.79 312.187 101.032C311.952 100.248 312.187 99.6734 312.605 99.4122Z" fill="#F69D7D"/>
<path d="M338.546 84.6853C338.677 87.5069 336.508 89.8844 333.687 90.0151C330.865 90.1457 328.488 87.9772 328.357 85.1556C328.227 82.334 330.395 79.9565 333.217 79.8259C336.038 79.6953 338.416 81.8637 338.546 84.6853Z" fill="#403433"/>
<path d="M311.449 84.6853C311.579 87.5069 309.411 89.8844 306.589 90.0151C303.768 90.1457 301.39 87.9772 301.26 85.1556C301.129 82.334 303.297 79.9565 306.119 79.8259C308.941 79.6953 311.318 81.8637 311.449 84.6853Z" fill="#403433"/>
<path d="M286.611 101.766C286.376 107.069 290.478 111.563 295.781 111.798C301.085 112.033 305.579 107.932 305.814 102.628C306.049 97.3244 301.947 92.8307 296.644 92.5956C291.34 92.3604 286.846 96.4622 286.611 101.766Z" fill="#F9B092"/>
<path d="M335.361 103.153C335.126 108.456 339.228 112.95 344.531 113.185C349.835 113.42 354.329 109.318 354.564 104.015C354.799 98.7111 350.697 94.2174 345.393 93.9823C340.09 93.7471 335.596 97.8489 335.361 103.153Z" fill="#F9B092"/>
<path d="M377.81 85.0952C379.168 89.7979 377.235 94.7618 375.354 99.2555C374.779 100.588 374.178 101.999 372.977 102.835C371.775 103.645 369.815 103.54 369.188 102.208C368.587 100.928 369.476 99.5168 370.181 98.2888C370.887 97.0609 371.278 95.2321 370.103 94.4744C369.554 94.1087 368.822 94.1609 368.248 93.8474C366.994 93.1943 366.994 91.3916 367.333 90.0069C367.777 88.0997 368.483 86.2448 369.45 84.4943C370.39 82.7961 371.853 81.0718 373.787 81.0979C375.798 81.1241 377.261 83.1097 377.836 85.0691L377.81 85.0952Z" fill="#F9B092"/>
<path d="M312.024 110.723C312.521 109.835 316.44 111.298 320.698 109.887C324.983 108.581 327.334 105.133 328.275 105.551C328.719 105.733 328.745 107.014 327.778 108.738C326.838 110.436 324.8 112.474 321.822 113.414C318.869 114.355 315.995 113.885 314.271 113.049C312.495 112.213 311.789 111.168 312.024 110.75V110.723Z" fill="#F69D7D"/>
<path d="M344.947 148.401C344.947 148.401 325.535 169.955 320.127 168.518C314.719 167.081 312.342 148.035 312.342 148.035C312.342 148.035 300.533 150.569 299.2 152.895C297.868 155.22 297.163 177.871 301.108 181.999C305.053 186.153 318.011 174.501 318.011 174.501C318.011 174.501 329.115 188.896 335.306 187.511C341.498 186.127 355.685 158.695 356.599 155.429C357.513 152.163 344.921 148.375 344.921 148.375L344.947 148.401Z" fill="white"/>
<path d="M341.577 73.4206C338.103 76.2944 322.662 73.708 324.439 68.6134C326.189 63.5188 347.534 68.5089 341.577 73.4206Z" fill="#403433"/>
<path d="M313.309 70.9122C310.801 74.6482 295.256 76.5292 295.491 71.1734C295.726 65.7915 317.62 64.5113 313.309 70.9122Z" fill="#403433"/>
<path d="M272.864 22.552C280.153 1.7296 303.693 -5.7424 322.922 4.65573C344.005 16.0728 371.829 4.44669 371.855 4.42056C370.68 7.39892 366.657 12.3629 365.794 13.9827C381.313 18.1106 383.09 27.0195 383.09 27.0195C400.49 26.497 384.918 39.7429 384.918 39.7429C393.226 47.6852 376.48 77.4165 376.48 77.4165C365.167 74.4904 361.901 95.365 361.901 95.365L356.702 93.9542V82.4588C347.036 75.9535 351.477 57.2734 351.477 57.2734C350.85 58.3968 345.076 57.7959 344.136 57.6914C338.806 57.1166 335.227 52.1265 330.028 51.2383C324.019 50.2194 318.323 54.4518 312.785 56.0716C306.41 57.9265 299.382 58.4229 292.877 56.9337C277.358 53.4067 267.482 37.9402 272.864 22.5259V22.552Z" fill="#403433"/>
<path d="M321.771 313.939C316.964 315.272 314.142 320.236 315.475 325.043C316.807 329.85 321.771 332.672 326.578 331.339C331.385 330.007 334.207 325.043 332.874 320.236C331.542 315.429 326.578 312.607 321.771 313.939Z" fill="#FBC0A4"/>
<path d="M321.772 313.935C321.824 314.353 316.913 312.316 316.573 312.08C314.875 310.983 313.542 309.337 311.714 308.527C308.578 307.117 305.287 306.045 301.942 305.34C298.99 304.739 296.142 304.138 293.974 306.751C293.295 307.587 292.798 308.553 292.067 309.337C290.787 310.696 288.932 311.323 287.103 311.662C285.274 312.002 283.393 312.054 281.59 312.525C278.324 313.387 275.451 315.581 273.517 318.351C271.558 321.12 270.487 324.438 270.069 327.808C269.834 329.663 270.853 330.787 272.525 331.335C277.515 333.007 282.714 334.052 287.939 334.653C292.459 335.176 297.24 334.601 301.812 334.288C309.414 333.739 317.278 334.627 317.278 334.627L321.824 313.935H321.772Z" fill="#FBC0A4"/>
<path d="M394.037 311.477C395.683 313.149 397.59 314.508 399.732 315.527C404.565 317.826 409.999 318.087 415.016 316.311C420.058 314.508 424.081 310.876 426.38 306.043C429.96 298.493 428.444 289.401 422.592 283.444C420.946 281.772 419.039 280.414 416.897 279.395C412.064 277.096 406.629 276.834 401.613 278.611C396.571 280.413 392.547 284.045 390.248 288.878C386.669 296.429 388.184 305.521 394.037 311.477Z" fill="#3E3533"/>
<path d="M326.164 333.321L317.229 334.627L315.348 309.781L324.283 309.886L326.164 333.321Z" fill="white"/>
<path d="M325.406 336.244C340.821 335.696 410.342 317.46 413.503 316.781L417.526 315.213L405.508 277.461L402.974 278.192C402.504 278.323 391.087 281.641 372.276 290.08C367.521 292.222 319.789 306.069 319.789 306.069L323.003 336.401L325.406 336.244Z" fill="#3E3533"/>
<path d="M387.395 221.97C389.955 222.832 392.646 223.25 395.39 223.171C401.555 223.015 407.303 220.48 411.561 215.987C415.82 211.519 418.067 205.641 417.91 199.475C417.675 189.809 411.352 181.239 402.208 178.156C399.648 177.294 396.957 176.876 394.214 176.955C381.464 177.268 371.354 187.901 371.667 200.651C371.902 210.317 378.225 218.887 387.369 221.97H387.395Z" fill="#3E3533"/>
<path d="M428.107 300.582L428.342 297.055C428.263 293.999 426.2 221.708 416.873 193.152L416.089 190.723L371.988 203.916L372.563 206.32C380.636 239.604 387.768 291.151 388.369 298.205L388.578 300.661L428.107 300.582Z" fill="#3E3533"/>
<path d="M401.926 316.497C408.823 318.822 416.426 317.228 421.808 312.343C429.959 304.923 430.56 292.252 423.14 284.101C420.868 281.593 417.968 279.685 414.754 278.614C407.857 276.289 400.254 277.883 394.872 282.768C390.927 286.374 388.602 291.285 388.341 296.615C388.079 301.945 389.934 307.065 393.514 311.01C395.787 313.518 398.687 315.426 401.874 316.497H401.926Z" fill="#3E3533"/>
<path d="M165.585 312.763C160.83 314.278 158.218 319.347 159.759 324.102C161.274 328.857 166.343 331.469 171.098 329.928C175.853 328.413 178.465 323.344 176.924 318.589C175.409 313.834 170.34 311.222 165.585 312.763Z" fill="#FBC0A4"/>
<path d="M165.585 312.76C165.664 313.178 160.673 311.349 160.308 311.14C158.583 310.095 157.146 308.527 155.318 307.77C152.13 306.49 148.812 305.549 145.416 305C142.437 304.53 139.564 304.034 137.5 306.725C136.847 307.587 136.402 308.58 135.697 309.363C134.469 310.774 132.64 311.48 130.811 311.872C128.983 312.263 127.128 312.42 125.351 312.969C122.112 313.962 119.342 316.261 117.513 319.108C115.685 321.956 114.718 325.326 114.457 328.697C114.3 330.552 115.371 331.649 117.069 332.119C122.138 333.582 127.363 334.418 132.614 334.81C137.16 335.15 141.915 334.392 146.461 333.87C154.011 333.007 161.562 331.753 169.086 330.29C169.086 330.29 165.637 312.734 165.637 312.708L165.585 312.76Z" fill="#FBC0A4"/>
<path d="M237.698 307.376C239.397 308.969 241.382 310.276 243.551 311.19C248.462 313.28 253.896 313.332 258.86 311.347C263.824 309.361 267.691 305.547 269.781 300.635C273.073 292.954 271.166 283.941 265.078 278.219C263.38 276.625 261.395 275.319 259.226 274.405C254.314 272.315 248.88 272.262 243.916 274.248C238.952 276.233 235.086 280.048 232.996 284.96C229.73 292.641 231.611 301.654 237.698 307.376Z" fill="#3E3533"/>
<path d="M170.757 331.932L161.9 333.604L159 308.863L167.935 308.602L170.757 331.932Z" fill="white"/>
<path d="M170.129 334.912C185.517 333.737 254.228 312.705 257.363 311.895L261.334 310.171L247.801 272.941L245.293 273.777C244.823 273.934 233.563 277.696 215.118 286.893C210.441 289.218 163.336 304.998 163.336 304.998L167.777 335.173L170.155 334.912H170.129Z" fill="#3E3533"/>
<path d="M296.281 160.812H98.8212C93.5546 160.812 89.2852 165.082 89.2852 170.348V295.701C89.2852 300.967 93.5546 305.237 98.8212 305.237H296.281C301.548 305.237 305.817 300.967 305.817 295.701V170.348C305.817 165.082 301.548 160.812 296.281 160.812Z" fill="#F8E8D8"/>
<path d="M246.384 328.328H137.047V334.259H246.384V328.328Z" fill="#F8E8D8"/>
<path d="M275.752 328.328H246.387V334.259H275.752V328.328Z" fill="white"/>
<path d="M202.339 334.266L216.107 253.902H180.811L167.043 334.266H202.339Z" fill="#F8E8D8"/>
<path d="M56.2013 373.055L37.8086 605.994H43.9482L83.3462 373.055H56.2013Z" fill="#52342D"/>
<path d="M418.627 343.008H34.4453V380.655H418.627V343.008Z" fill="#52342D"/>
<path d="M440.389 373.055L421.996 605.994H428.162L467.534 373.055H440.389Z" fill="#623A33"/>
<path d="M534.356 373.055L552.749 605.994H546.583L507.211 373.055H534.356Z" fill="#623A33"/>
<path d="M565.162 334.258H23.2578V343.01H565.162V334.258Z" fill="white"/>
<path d="M418.593 380.656H554.004V343.009H418.593V380.656Z" fill="#623A33"/>
<g filter="url(#filter0_d_1317_1064)">
<rect x="12" y="103.531" width="103.9" height="103.9" rx="16.4508" transform="rotate(-11.959 12 103.531)" fill="#0068D2"/>
<rect x="36.4443" y="131.453" width="15.0077" height="47.2743" transform="rotate(-11.959 36.4443 131.453)" fill="white"/>
<rect x="57.3698" y="146.965" width="15.0077" height="27.7643" transform="rotate(-11.959 57.3698 146.965)" fill="white"/>
<rect x="71.6119" y="130.91" width="15.0077" height="40.5208" transform="rotate(-11.959 71.6119 130.91)" fill="white"/>
<rect x="85.2318" y="111.914" width="15.0077" height="56.2789" transform="rotate(-11.959 85.2318 111.914)" fill="white"/>
</g>
<g filter="url(#filter1_d_1317_1064)">
<rect x="496.825" y="242" width="103.9" height="103.9" rx="16.4508" transform="rotate(17.8372 496.825 242)" fill="#0068D2"/>
<circle cx="501.665" cy="286.306" r="4.32915" transform="rotate(17.8372 501.665 286.306)" fill="white"/>
<circle cx="512.221" cy="326.994" r="4.32915" transform="rotate(17.8372 512.221 326.994)" fill="white"/>
<circle cx="535.774" cy="327.295" r="4.32915" transform="rotate(17.8372 535.774 327.295)" fill="white"/>
<circle cx="570.198" cy="293.806" r="4.32915" transform="rotate(17.8372 570.198 293.806)" fill="white"/>
<path d="M501.665 286.305L512.088 327.405L535.772 327.295L570.197 293.804" stroke="white" stroke-width="1.73166"/>
<circle cx="494.242" cy="309.389" r="4.32915" transform="rotate(17.8372 494.242 309.389)" fill="white"/>
<circle cx="524.689" cy="288.26" r="4.32915" transform="rotate(17.8372 524.689 288.26)" fill="white"/>
<circle cx="541.078" cy="310.814" r="4.32915" transform="rotate(17.8372 541.078 310.814)" fill="white"/>
<circle cx="564.632" cy="311.119" r="4.32915" transform="rotate(17.8372 564.632 311.119)" fill="white"/>
<path d="M493.831 309.256L524.41 287.716L540.668 310.684L564.764 310.706" stroke="white" stroke-width="1.73166"/>
</g>
<defs>
<filter id="filter0_d_1317_1064" x="-3" y="71.0039" width="153.174" height="153.172" filterUnits="userSpaceOnUse" color-interpolation-filters="sRGB">
<feFlood flood-opacity="0" result="BackgroundImageFix"/>
<feColorMatrix in="SourceAlpha" type="matrix" values="0 0 0 0 0 0 0 0 0 0 0 0 0 0 0 0 0 0 127 0" result="hardAlpha"/>
<feOffset dy="4"/>
<feGaussianBlur stdDeviation="7.5"/>
<feComposite in2="hardAlpha" operator="out"/>
<feColorMatrix type="matrix" values="0 0 0 0 0 0 0 0 0 0 0 0 0 0 0 0 0 0 0.25 0"/>
<feBlend mode="normal" in2="BackgroundImageFix" result="effect1_dropShadow_1317_1064"/>
<feBlend mode="normal" in="SourceGraphic" in2="effect1_dropShadow_1317_1064" result="shape"/>
</filter>
<filter id="filter1_d_1317_1064" x="449.998" y="231" width="160.731" height="160.73" filterUnits="userSpaceOnUse" color-interpolation-filters="sRGB">
<feFlood flood-opacity="0" result="BackgroundImageFix"/>
<feColorMatrix in="SourceAlpha" type="matrix" values="0 0 0 0 0 0 0 0 0 0 0 0 0 0 0 0 0 0 127 0" result="hardAlpha"/>
<feOffset dy="4"/>
<feGaussianBlur stdDeviation="7.5"/>
<feComposite in2="hardAlpha" operator="out"/>
<feColorMatrix type="matrix" values="0 0 0 0 0 0 0 0 0 0 0 0 0 0 0 0 0 0 0.25 0"/>
<feBlend mode="normal" in2="BackgroundImageFix" result="effect1_dropShadow_1317_1064"/>
<feBlend mode="normal" in="SourceGraphic" in2="effect1_dropShadow_1317_1064" result="shape"/>
</filter>
</defs>
</svg>
