<svg width="81" height="54" viewBox="0 0 81 54" fill="none" xmlns="http://www.w3.org/2000/svg">
<path d="M12.3281 20.3549C12.3281 21.3403 12.0856 22.2005 11.6008 22.9355C11.116 23.6706 10.4122 24.2415 9.48942 24.6481C8.58231 25.0391 7.47187 25.2346 6.15812 25.2346C5.57945 25.2346 5.00859 25.1955 4.44555 25.1173C3.89816 25.0391 3.3664 24.9296 2.85028 24.7889C2.3498 24.6325 1.87279 24.4448 1.41923 24.2258V20.918C2.21687 21.2621 3.03796 21.5827 3.88252 21.8798C4.74271 22.1614 5.59509 22.3021 6.43964 22.3021C7.01832 22.3021 7.47969 22.2239 7.82377 22.0675C8.18349 21.9111 8.44155 21.7 8.59795 21.4341C8.76999 21.1682 8.85601 20.8632 8.85601 20.5192C8.85601 20.0969 8.70743 19.7372 8.41027 19.44C8.12875 19.1429 7.74557 18.8692 7.26074 18.6189C6.7759 18.353 6.22068 18.0715 5.59509 17.7744C5.20409 17.5867 4.78181 17.3677 4.32825 17.1175C3.8747 16.8516 3.43678 16.531 3.0145 16.1556C2.60786 15.7646 2.27161 15.2954 2.00573 14.748C1.73985 14.2006 1.60691 13.5438 1.60691 12.7774C1.60691 11.7765 1.83369 10.9241 2.28725 10.2203C2.75644 9.50085 3.41332 8.95345 4.25787 8.5781C5.11807 8.20274 6.12684 8.01506 7.2842 8.01506C8.16003 8.01506 8.98895 8.11672 9.77094 8.32004C10.5686 8.52336 11.3975 8.81269 12.2577 9.18805L11.1082 11.9563C10.3418 11.6435 9.65364 11.4011 9.04369 11.2291C8.43373 11.057 7.80813 10.971 7.1669 10.971C6.72898 10.971 6.35362 11.0414 6.04082 11.1821C5.72802 11.3229 5.48561 11.5184 5.31357 11.7686C5.15717 12.0189 5.07897 12.316 5.07897 12.6601C5.07897 13.0511 5.19627 13.3874 5.43087 13.6689C5.66547 13.9348 6.01736 14.1928 6.48656 14.4431C6.95576 14.6933 7.54225 14.9905 8.24605 15.3345C9.10625 15.7412 9.8335 16.1635 10.4278 16.6014C11.0378 17.0393 11.507 17.5554 11.8354 18.1497C12.1638 18.744 12.3281 19.4791 12.3281 20.3549ZM22.4576 25L18.4225 11.8625H18.3287C18.3443 12.1753 18.3678 12.6445 18.399 13.2701C18.4303 13.8957 18.4616 14.5682 18.4929 15.2876C18.5242 15.9914 18.5398 16.6326 18.5398 17.2113V25H15.3727V8.24966H20.2054L24.1702 21.0587H24.2405L28.4399 8.24966H33.2726V25H29.9648V17.0706C29.9648 16.5388 29.9726 15.9289 29.9882 15.2407C30.0195 14.5525 30.043 13.9035 30.0586 13.2935C30.0899 12.6679 30.1133 12.1987 30.129 11.8859H30.0351L25.7185 25H22.4576ZM47.7558 25L46.5358 21.0118H40.4363L39.2164 25H35.3924L41.3043 8.17928H45.6444L51.5797 25H47.7558ZM44.4714 14.1381C44.3932 13.8722 44.2915 13.5359 44.1664 13.1293C44.0413 12.7227 43.9162 12.3082 43.791 11.8859C43.6659 11.4637 43.5643 11.0961 43.4861 10.7833C43.4079 11.0961 43.2984 11.4871 43.1576 11.9563C43.0325 12.4099 42.9074 12.8478 42.7823 13.2701C42.6728 13.6767 42.5868 13.966 42.5242 14.1381L41.3278 18.0324H45.6913L44.4714 14.1381ZM58.5808 8.24966C60.0979 8.24966 61.3491 8.43734 62.3344 8.81269C63.3197 9.17241 64.0548 9.72763 64.5396 10.4783C65.0245 11.2134 65.2669 12.144 65.2669 13.2701C65.2669 14.0364 65.1183 14.7089 64.8212 15.2876C64.5396 15.8507 64.1565 16.3355 63.6716 16.7421C63.2024 17.1331 62.6941 17.4537 62.1467 17.704L67.0733 25H63.132L59.1439 18.572H57.2436V25H53.7012V8.24966H58.5808ZM58.3228 11.1587H57.2436V15.6864H58.3932C59.1751 15.6864 59.8086 15.6004 60.2934 15.4284C60.7782 15.2563 61.1301 14.9983 61.3491 14.6542C61.5681 14.2945 61.6775 13.8644 61.6775 13.3639C61.6775 12.8322 61.5524 12.4099 61.3022 12.0971C61.0676 11.7686 60.7 11.534 60.1996 11.3933C59.7147 11.2369 59.0891 11.1587 58.3228 11.1587ZM75.6398 25H72.0974V11.2056H67.5462V8.24966H80.191V11.2056H75.6398V25Z" fill="black"/>
<path d="M12.8069 41.353C12.8069 42.3984 12.5497 43.311 12.0353 44.0909C11.5209 44.8708 10.7742 45.4765 9.79518 45.9079C8.83276 46.3227 7.65462 46.5302 6.26076 46.5302C5.64679 46.5302 5.04113 46.4887 4.44376 46.4057C3.86299 46.3227 3.29881 46.2066 2.75122 46.0572C2.22022 45.8913 1.71412 45.6922 1.23291 45.4599V41.9503C2.07918 42.3154 2.95034 42.6556 3.84639 42.9708C4.75904 43.2695 5.66339 43.4189 6.55944 43.4189C7.1734 43.4189 7.66291 43.3359 8.02797 43.17C8.40962 43.004 8.68342 42.78 8.84935 42.4979C9.03188 42.2158 9.12315 41.8923 9.12315 41.5272C9.12315 41.0792 8.96551 40.6975 8.65023 40.3822C8.35154 40.067 7.945 39.7766 7.4306 39.5111C6.9162 39.229 6.32713 38.9303 5.66339 38.615C5.24855 38.4159 4.80052 38.1836 4.31931 37.9181C3.8381 37.636 3.37348 37.2958 2.92545 36.8976C2.49402 36.4828 2.13726 35.9849 1.85517 35.4042C1.57308 34.8234 1.43203 34.1265 1.43203 33.3134C1.43203 32.2514 1.67264 31.347 2.15385 30.6003C2.65166 29.837 3.34859 29.2563 4.24464 28.858C5.15728 28.4598 6.22757 28.2606 7.45549 28.2606C8.38473 28.2606 9.26419 28.3685 10.0939 28.5842C10.9401 28.7999 11.8196 29.1069 12.7322 29.5052L11.5126 32.4422C10.6995 32.1103 9.96942 31.8531 9.32227 31.6706C8.67512 31.4881 8.01138 31.3968 7.33104 31.3968C6.86642 31.3968 6.46818 31.4715 6.1363 31.6208C5.80443 31.7702 5.54723 31.9776 5.3647 32.2431C5.19877 32.5086 5.1158 32.8239 5.1158 33.1889C5.1158 33.6038 5.24025 33.9605 5.48916 34.2592C5.73806 34.5413 6.11141 34.8151 6.60922 35.0806C7.10703 35.3461 7.72929 35.6614 8.476 36.0264C9.38864 36.4579 10.1602 36.9059 10.7908 37.3705C11.4379 37.8351 11.9358 38.3827 12.2842 39.0133C12.6327 39.6438 12.8069 40.4237 12.8069 41.353ZM22.8821 46.2812H19.1236V31.6457H14.2949V28.5095H27.7108V31.6457H22.8821V46.2812ZM57.3171 31.3968C56.6035 31.3968 55.9647 31.5379 55.4005 31.82C54.8529 32.1021 54.3883 32.5086 54.0067 33.0396C53.625 33.554 53.3346 34.1845 53.1355 34.9313C52.953 35.678 52.8617 36.5159 52.8617 37.4452C52.8617 38.7063 53.011 39.7849 53.3097 40.6809C53.625 41.5604 54.1145 42.2324 54.7783 42.697C55.442 43.1617 56.2883 43.394 57.3171 43.394C58.0472 43.394 58.769 43.311 59.4825 43.1451C60.2126 42.9791 61.0008 42.7468 61.8471 42.4481V45.6092C61.0672 45.9245 60.2956 46.1568 59.5323 46.3061C58.769 46.4555 57.9144 46.5302 56.9686 46.5302C55.1433 46.5302 53.6333 46.1568 52.4386 45.4101C51.2604 44.6468 50.3893 43.5848 49.8251 42.2241C49.2609 40.8469 48.9788 39.2456 48.9788 37.4203C48.9788 36.0762 49.1613 34.8483 49.5264 33.7365C49.8914 32.6082 50.4224 31.6374 51.1194 30.8243C51.8329 30.0113 52.7041 29.3807 53.7329 28.9327C54.7783 28.4847 55.973 28.2606 57.3171 28.2606C58.1965 28.2606 59.076 28.3768 59.9554 28.6091C60.8515 28.8248 61.7061 29.1235 62.5192 29.5052L61.2995 32.5667C60.6358 32.2514 59.9637 31.9776 59.2834 31.7453C58.6197 31.513 57.9642 31.3968 57.3171 31.3968ZM79.9105 46.2812H75.6294L70.9749 38.7893L69.3819 39.9342V46.2812H65.6234V28.5095H69.3819V36.6487C69.6308 36.3002 69.8797 35.9518 70.1286 35.6033C70.3775 35.2548 70.6264 34.9064 70.8753 34.5579L75.6791 28.5095H79.8607L73.663 36.3749L79.9105 46.2812Z" fill="black"/>
<path d="M46.0941 37.3705C46.0941 38.7478 45.9198 40.0006 45.5714 41.1289C45.2395 42.2407 44.7251 43.2031 44.0282 44.0162C43.3478 44.8293 42.4684 45.4516 41.3898 45.883C40.3278 46.3144 39.075 46.5302 37.6313 46.5302C36.1877 46.5302 34.9266 46.3144 33.848 45.883C32.786 45.435 31.9066 44.8127 31.2096 44.0162C30.5293 43.2031 30.0149 42.2324 29.6664 41.1041C29.3346 39.9757 29.1686 38.7229 29.1686 37.3456C29.1686 35.5037 29.4673 33.9025 30.0647 32.5418C30.6786 31.1811 31.6079 30.1274 32.8524 29.3807C34.1135 28.6174 35.7148 28.2358 37.6562 28.2358C39.5811 28.2358 41.1658 28.6174 42.4103 29.3807C43.6548 30.1274 44.5757 31.1894 45.1731 32.5667C45.7871 33.9273 46.0941 35.5286 46.0941 37.3705ZM33.1262 37.3705C33.1262 38.615 33.2838 39.6853 33.5991 40.5814C33.9144 41.4774 34.4039 42.166 35.0676 42.6473C35.7314 43.1285 36.5859 43.3691 37.6313 43.3691C38.7099 43.3691 39.5728 43.1285 40.2199 42.6473C40.8837 42.166 41.3649 41.4774 41.6636 40.5814C41.9788 39.6853 42.1365 38.615 42.1365 37.3705C42.1365 35.4954 41.788 34.0269 41.0911 32.9649C40.3942 31.9029 39.2492 31.3719 37.6562 31.3719C36.5942 31.3719 35.7314 31.6125 35.0676 32.0938C34.4039 32.575 33.9144 33.2636 33.5991 34.1597C33.2838 35.0557 33.1262 36.126 33.1262 37.3705Z" fill="#0068D2"/>
<ellipse cx="37.7952" cy="36.7137" rx="5.11384" ry="7.20587" fill="#0068D2"/>
</svg>
