<svg width="583" height="854" viewBox="0 0 583 854" fill="none" xmlns="http://www.w3.org/2000/svg">
<path d="M256.865 357.766C238.064 357.766 222.823 342.525 222.823 323.725C222.823 304.924 238.064 289.684 256.865 289.684C275.665 289.684 290.906 304.924 290.906 323.725C290.906 342.525 275.665 357.766 256.865 357.766Z" fill="#FBC0A4"/>
<path d="M238.472 514.89C222.545 514.89 209.634 501.979 209.634 486.052C209.634 470.126 222.545 457.215 238.472 457.215C254.398 457.215 267.309 470.126 267.309 486.052C267.309 501.979 254.398 514.89 238.472 514.89Z" fill="#FBC0A4"/>
<path d="M289.821 332.217C277.853 387.551 268.096 473.629 267.315 486.032H209.597C209.597 486.032 209.857 362.096 224.124 314.395L289.778 332.261L289.821 332.217Z" fill="#FBC0A4"/>
<path d="M357.548 625.005C351.478 598.263 368.235 571.663 394.977 565.592C421.719 559.522 448.319 576.279 454.389 603.021C460.46 629.763 443.703 656.363 416.961 662.433C390.219 668.504 363.619 651.747 357.548 625.005Z" fill="#302624"/>
<path d="M364.662 872.484L356.293 614.074H455.641L448.833 872.484H364.662Z" fill="#302624"/>
<path d="M365.753 882.174C360.431 859.537 374.468 836.87 397.106 831.548C419.744 826.226 442.41 840.263 447.732 862.901C453.054 885.539 439.017 908.205 416.379 913.527C393.741 918.849 371.075 904.812 365.753 882.174Z" fill="#302624"/>
<path d="M252.66 608.363C249.494 635.596 269.052 660.271 296.285 663.393C323.518 666.559 348.192 647.001 351.314 619.768C354.48 592.535 334.923 567.861 307.69 564.738C280.457 561.573 255.782 581.13 252.66 608.363Z" fill="#302624"/>
<path d="M231.278 866.036L252.657 608.363L351.312 619.768L314.885 875.706L231.278 866.036Z" fill="#302624"/>
<path d="M231.148 867.205C229.11 890.362 246.239 910.787 269.396 912.825C292.552 914.863 312.977 897.734 315.015 874.577C317.053 851.42 299.924 830.996 276.768 828.958C253.611 826.919 233.186 844.048 231.148 867.205Z" fill="#302624"/>
<path d="M252.138 564.402H302.355C302.355 564.402 302.658 564.402 302.788 564.402H405.779C405.779 564.402 405.909 564.402 405.996 564.402C406.083 564.402 406.126 564.402 406.213 564.402H455.692V614.402C455.518 641.678 433.359 663.751 406.039 663.751H302.051C300.143 663.751 298.278 663.664 296.327 663.404C271.132 660.498 252.529 639.163 252.398 614.402H252.182V564.402H252.138Z" fill="#302624"/>
<path d="M252.138 564.402H302.355C302.355 564.402 302.658 564.402 302.788 564.402H405.779C405.779 564.402 405.909 564.402 405.996 564.402C406.083 564.402 406.126 564.402 406.213 564.402H455.692V614.402C455.518 641.678 433.359 663.751 406.039 663.751H302.051C300.143 663.751 298.278 663.664 296.327 663.404C271.132 660.498 252.529 639.163 252.398 614.402H252.182V564.402H252.138Z" fill="#302624"/>
<path d="M223.822 331.939C219.286 313.694 230.4 295.227 248.645 290.691C266.89 286.156 285.358 297.27 289.893 315.515C294.429 333.76 283.315 352.228 265.07 356.763C246.824 361.299 228.357 350.185 223.822 331.939Z" fill="#FBC0A4"/>
<path d="M442.976 339.787C438.706 321.478 450.086 303.174 468.395 298.903C486.704 294.632 505.008 306.012 509.279 324.321C513.55 342.63 502.169 360.935 483.86 365.206C465.551 369.476 447.247 358.096 442.976 339.787Z" fill="#FBC0A4"/>
<path d="M469.769 351.837L447.393 462.33L464.479 602.137C464.479 602.137 356.284 643.16 245.097 608.685C245.097 608.685 250.908 447.239 261.315 320.658L233.432 299.105C257.933 276.382 343.925 246.287 368.036 250.103C405.98 256.088 500.168 300.58 502.986 311.247L469.769 351.88V351.837Z" fill="#FBC0A4"/>
<path d="M256.864 362.099C278.026 362.099 295.242 344.883 295.242 323.721C295.242 302.56 278.026 285.344 256.864 285.344C235.703 285.344 218.487 302.56 218.487 323.721C218.487 344.883 235.703 362.099 256.864 362.099Z" fill="#3E3533"/>
<path d="M271.39 490.356L271.65 486.28C272.387 474.572 282.014 388.753 294.07 333.116L294.937 329.083L221.13 309.699L220.003 313.082C213.368 346.039 205.302 480.903 205.302 485.977V490.313H271.433L271.39 490.356Z" fill="#3E3533"/>
<path d="M238.47 519.239C253.561 519.239 266.744 509.005 270.56 494.391C275.157 476.699 264.489 458.529 246.796 453.889C244.064 453.195 241.246 452.805 238.427 452.805C223.336 452.805 210.11 462.995 206.337 477.653C201.741 495.389 212.365 513.515 230.101 518.155C232.833 518.892 235.695 519.239 238.47 519.239Z" fill="#3E3533"/>
<path d="M256.852 362.103C270.425 362.103 282.697 355.165 289.722 343.586C300.694 325.46 294.839 301.826 276.756 290.898C270.772 287.256 263.92 285.348 256.939 285.348C243.366 285.348 231.093 292.286 224.068 303.864C218.778 312.624 217.173 322.945 219.645 332.919C222.117 342.892 228.275 351.262 237.034 356.596C243.019 360.238 249.87 362.146 256.852 362.146V362.103Z" fill="#3E3533"/>
<path d="M476.11 370.466C454.914 370.466 437.732 353.284 437.732 332.089C437.732 310.893 454.914 293.711 476.11 293.711C497.305 293.711 514.487 310.893 514.487 332.089C514.487 353.284 497.305 370.466 476.11 370.466Z" fill="#F8E8D8"/>
<path d="M340.298 626.794C410.852 626.794 463.843 607.02 466.055 606.153L469.221 604.939L451.788 462.486L473.774 353.727L507.729 312.227L507.165 310.102C503.349 295.705 403.09 251.257 368.701 245.793C367.097 245.532 365.232 245.402 363.194 245.402C333.446 245.402 254.479 273.589 230.455 295.879L226.899 299.738L256.777 322.635C246.63 447.525 240.819 606.933 240.732 608.538L240.602 611.833L243.768 612.831C273.69 622.111 306.126 626.838 340.211 626.838L340.298 626.794Z" fill="#3E3533"/>
<path d="M325.337 252.523C325.337 252.523 308.381 251.786 305.302 253.694C302.223 255.602 294.504 277.891 292.943 281.404C291.382 284.916 313.585 305.645 313.585 305.645C313.585 305.645 295.285 335.696 296.066 338.125C296.846 340.553 329.283 471.861 329.283 471.861C329.283 471.861 407.946 354.517 409.551 348.662C411.155 342.851 402.005 312.626 402.005 312.626C402.005 312.626 425.292 295.454 426.723 291.724C428.154 287.995 431.103 264.058 426.723 261.022C424.035 259.158 408.38 255.645 408.38 255.645L325.38 252.523H325.337Z" fill="#302624"/>
<path d="M400.13 265.691L328.882 461.179L320.47 265.691H400.13Z" fill="white"/>
<path d="M367.217 300.352L351.779 312.624V398.443L328.883 461.191L326.064 395.277L336.819 311.453L328.97 295.278L346.836 285.348L367.217 300.352Z" fill="#0068D2"/>
<path d="M391.553 259.723L400.096 176.68L336.784 208.9L337.391 211.935L339.169 253.695C339.689 265.621 339.169 277.719 351.745 279.714C366.749 282.142 390.122 273.47 391.553 259.68V259.723Z" fill="#FBC0A4"/>
<path d="M338.509 237.867L337.425 211.935L336.818 208.9L400.13 176.68L396.097 215.838C384.779 232.794 362.447 237.911 338.553 237.824L338.509 237.867Z" fill="#F69D7D"/>
<path d="M294.627 142.336C294.888 122.562 293.717 94.1149 301.609 73.3866C301.609 73.3866 301.609 73.3866 301.609 73.3433C301.609 73.3433 301.609 73.3433 301.609 73.2999C305.122 64.1933 310.369 56.6479 318.305 51.9645C326.977 45.72 339.076 41.6871 357.203 40.2127C395.32 37.1772 420.081 51.4441 436.647 76.2487C449.006 94.722 443.715 119.006 441.2 127.766C448.225 128.416 458.025 132.666 455.814 151.963C452.388 181.451 431.053 182.015 424.765 183.316C424.765 183.316 413.013 235.831 348.269 230.8C283.483 225.77 294.107 175.64 294.584 142.38L294.627 142.336Z" fill="#FBC0A4"/>
<path d="M339.241 165.018C338.503 165.451 338.157 166.405 338.547 167.706C338.894 168.964 340.065 170.438 341.799 171.262C343.534 172.086 345.442 172.086 346.613 171.566C347.827 171.045 348.391 170.135 348.26 169.311C347.87 167.62 346.092 166.579 344.444 165.712C342.71 164.974 340.802 164.281 339.241 165.018Z" fill="#F69D7D"/>
<path d="M382.318 140.556C382.535 145.239 378.935 149.185 374.252 149.402C369.569 149.619 365.622 146.02 365.406 141.336C365.189 136.653 368.788 132.707 373.471 132.49C378.155 132.273 382.101 135.872 382.318 140.556Z" fill="#403433"/>
<path d="M337.344 140.556C337.561 145.239 333.961 149.185 329.278 149.402C324.595 149.619 320.648 146.02 320.432 141.336C320.215 136.653 323.814 132.707 328.497 132.49C333.181 132.273 337.127 135.872 337.344 140.556Z" fill="#403433"/>
<path d="M296.063 168.96C295.672 177.763 302.481 185.221 311.284 185.612C320.087 186.002 327.545 179.194 327.936 170.391C328.326 161.588 321.518 154.129 312.715 153.739C303.912 153.348 296.453 160.157 296.063 168.96Z" fill="#F9B092"/>
<path d="M377.015 171.214C376.625 180.017 383.433 187.475 392.236 187.866C401.039 188.256 408.498 181.448 408.888 172.645C409.279 163.842 402.47 156.383 393.667 155.993C384.864 155.602 377.406 162.411 377.015 171.214Z" fill="#F9B092"/>
<path d="M447.482 141.252C449.737 149.058 446.528 157.297 443.405 164.756C442.451 166.968 441.454 169.309 439.459 170.697C437.464 172.041 434.212 171.868 433.171 169.656C432.174 167.531 433.648 165.19 434.819 163.152C435.99 161.113 436.641 158.078 434.689 156.82C433.779 156.213 432.564 156.3 431.61 155.78C429.529 154.695 429.529 151.703 430.093 149.405C430.83 146.239 432.001 143.16 433.605 140.255C435.166 137.436 437.595 134.574 440.804 134.618C444.143 134.661 446.571 137.957 447.525 141.209L447.482 141.252Z" fill="#F9B092"/>
<path d="M338.296 183.785C337.862 184.479 339.076 186.213 342.025 187.601C344.887 188.989 349.657 189.812 354.558 188.251C359.458 186.69 362.884 183.264 364.445 180.489C366.049 177.627 366.006 175.545 365.269 175.199C363.751 174.505 359.848 180.229 352.736 182.397C345.668 184.739 339.163 182.31 338.339 183.785H338.296Z" fill="#F69D7D"/>
<path d="M387.332 121.917C381.564 126.687 355.936 122.394 358.885 113.937C361.79 105.481 397.219 113.764 387.332 121.917Z" fill="#403433"/>
<path d="M340.418 117.715C336.255 123.916 310.453 127.038 310.843 118.148C311.233 109.215 347.573 107.09 340.418 117.715Z" fill="#403433"/>
<path d="M273.291 37.4325C285.39 2.87088 324.462 -9.53142 356.378 7.7277C391.373 26.678 437.557 7.38078 437.6 7.33742C435.649 12.281 428.97 20.5203 427.539 23.2089C453.298 30.0605 456.247 44.8478 456.247 44.8478C485.128 43.9805 459.282 65.9664 459.282 65.9664C473.072 79.1493 445.276 128.498 445.276 128.498C426.499 123.641 421.078 158.29 421.078 158.29L412.449 155.948V136.868C396.404 126.07 403.776 95.0641 403.776 95.0641C402.735 96.9287 393.151 95.9314 391.59 95.7579C382.744 94.8039 376.803 86.5212 368.173 85.0469C358.199 83.3556 348.746 90.3807 339.553 93.0693C328.972 96.1482 317.307 96.9721 306.509 94.5003C280.75 88.6461 264.358 62.9743 273.291 37.3891V37.4325Z" fill="#403433"/>
<path d="M392.94 246.314C392.94 246.314 360.72 282.09 351.744 279.705C342.768 277.32 338.821 245.707 338.821 245.707C338.821 245.707 319.221 249.913 317.009 253.773C314.797 257.632 313.626 295.229 320.175 302.081C326.723 308.976 348.231 289.635 348.231 289.635C348.231 289.635 366.661 313.529 376.939 311.231C387.216 308.933 410.763 263.4 412.281 257.979C413.799 252.559 392.897 246.271 392.897 246.271L392.94 246.314Z" fill="white"/>
<path d="M365.747 173.16C365.747 173.16 348.921 180.402 334.958 178.841C334.958 178.841 331.185 197.358 352.26 194.756C373.379 192.154 365.747 173.16 365.747 173.16Z" fill="#CB4453"/>
<path d="M348.271 182.44C350.049 180.402 352.087 178.624 354.212 176.933C360.89 175.242 365.747 173.16 365.747 173.16C365.747 173.16 373.379 192.154 352.26 194.756C347.49 195.363 344.021 194.799 341.463 193.715C343.197 189.639 345.322 185.779 348.228 182.44H348.271Z" fill="#DD5664"/>
<path d="M341.931 178.971C353.943 178.234 365.739 173.16 365.739 173.16C365.739 173.16 366.823 175.892 367.04 179.405C358.93 182.223 350.561 183.698 342.018 184.522C342.018 182.657 342.018 180.836 341.931 178.971Z" fill="white"/>
<path d="M468.223 599.841C464.19 607.083 466.835 616.19 474.034 620.179C481.276 624.212 490.382 621.567 494.372 614.368C498.405 607.127 495.76 598.02 488.561 594.03C481.319 589.997 472.213 592.643 468.223 599.841Z" fill="#FBC0A4"/>
<path d="M468.221 599.844C460.372 607.91 439.124 603.183 430.581 605.828C422.038 608.517 420.824 620.312 420.824 620.312C420.824 620.312 414.276 627.684 411.891 632.714C409.506 637.744 413.625 642.038 421.301 642.124C429.02 642.211 425.334 650.32 432.012 654.223C438.69 658.126 444.631 654.353 449.011 662.939C453.391 671.525 492.332 617.19 492.332 617.19L468.178 599.844H468.221Z" fill="#FBC0A4"/>
<path d="M549.353 511.372C553.256 511.372 557.072 510.678 560.758 509.334C569.084 506.298 575.719 500.184 579.448 492.118C583.178 484.052 583.568 475.076 580.489 466.75C575.719 453.74 563.186 444.98 549.31 444.98C545.407 444.98 541.591 445.674 537.905 447.019C529.579 450.054 522.944 456.169 519.215 464.234C515.485 472.3 515.095 481.277 518.174 489.603C522.944 502.612 535.476 511.372 549.353 511.372Z" fill="#3E3533"/>
<path d="M496.278 617.139L487.431 629.237L455.819 602.611L466.313 592.117L496.278 617.139Z" fill="white"/>
<path d="M498.832 621.482C516.091 602.619 575.328 499.021 578.19 494.511L581.008 487.919L522.336 458.258L520.254 462.117C519.864 462.854 510.541 480.2 498.659 512.29C495.667 520.399 456.595 593.035 456.595 593.035L496.274 624.518L498.876 621.482H498.832Z" fill="#3E3533"/>
<path d="M476.234 370.478C480.744 370.478 485.168 369.698 489.417 368.137C499.044 364.624 506.72 357.556 511.056 348.232C515.349 338.909 515.783 328.501 512.27 318.875C506.763 303.827 492.279 293.68 476.234 293.68C471.724 293.68 467.301 294.46 463.052 296.021C443.191 303.307 432.957 325.379 440.198 345.284C445.706 360.331 460.189 370.478 476.234 370.478Z" fill="#3E3533"/>
<path d="M581.998 472.425L580.48 466.744C578.702 461.974 537.029 349.399 507.194 309.461L504.679 306.078L442.364 350.267L444.576 353.736C474.974 401.741 513.569 479.06 518.295 489.814L519.943 493.543L582.042 472.381L581.998 472.425Z" fill="#3E3533"/>
<path d="M549.312 511.372C561.368 511.372 572.512 504.824 578.367 494.286C587.256 478.284 581.446 458.033 565.444 449.144C560.5 446.412 554.95 444.98 549.356 444.98C537.3 444.98 526.156 451.529 520.301 462.066C516.008 469.828 514.968 478.805 517.396 487.304C519.824 495.847 525.462 502.872 533.181 507.209C538.081 509.941 543.675 511.372 549.269 511.372H549.312Z" fill="#3E3533"/>
<path d="M112.953 396.674C108.992 393.818 102.431 374.23 97.1402 362.681C91.8493 351.133 82.4097 342.276 79.0716 344.263C75.7335 346.251 90.26 365.303 82.1993 368.135C74.1385 370.967 64.8705 363.202 56.1621 355.547C47.4536 347.892 28.0927 326.122 25.3357 331.866C22.3405 338.121 54.2553 365.884 51.2855 369.45C49.2291 371.925 15.7618 344.965 10.5696 349.783C5.06327 354.848 46.9236 375.17 46.5822 381.276C46.1902 387.553 8.67899 362.855 5.84441 369.421C3.00985 375.986 46.2458 393.501 46.8865 397.912C47.5706 402.324 15.4875 387.965 15.3736 393.82C15.2885 400.023 46.4348 409.785 62.4241 414.575C78.3701 419.363 102.315 424.876 106.619 425.75L112.998 396.633L112.953 396.674Z" fill="#FBC0A4"/>
<path d="M112.953 396.676C105.067 394.264 96.6797 398.688 94.2675 406.574C91.8553 414.459 96.2798 422.847 104.165 425.259C112.051 427.671 120.438 423.247 122.85 415.361C125.263 407.476 120.838 399.088 112.953 396.676Z" fill="#FBC0A4"/>
<path d="M114.072 436.16L97.7954 426.801L111.207 387.257L135.426 398.683L114.072 436.16Z" fill="white"/>
<path d="M177.682 482.134C204.303 503.6 221.242 513.725 221.919 514.143L225.688 516.384L259.213 458.712L255.133 456.632C222.231 436.944 121.933 385.843 121.933 385.843L102.905 434.137C102.905 434.137 170.966 476.646 177.727 482.092L177.682 482.134Z" fill="#3E3533"/>
</svg>
