<svg width="554" height="401" viewBox="0 0 554 401" fill="none" xmlns="http://www.w3.org/2000/svg">
<g clip-path="url(#clip0_1627_766)">
<path d="M71.8999 121.822C66.584 116.627 58.1046 116.73 52.9005 122.008C47.7049 127.324 47.8088 135.804 53.0867 141.008C58.3646 146.212 66.882 146.099 72.0861 140.822C77.2817 135.506 77.1778 127.026 71.8999 121.822Z" fill="#FBC0A4"/>
<path d="M16.1133 97.1205C17.4226 96.9069 18.9607 97.0013 20.1934 96.4456C22.9924 95.2196 23.2979 91.2391 22.0718 88.4401C20.8458 85.6412 18.5391 83.3638 17.5031 80.5222C16.9002 78.9009 16.8079 76.8857 18.0098 75.6583C20.8901 72.6576 30.5056 79.4046 29.5156 71.6028C28.8984 66.7114 13.1297 49.6074 9.48289 44.5567C8.6061 43.3161 7.68672 41.8856 8.04326 40.4484C8.49221 38.7111 10.6751 37.9424 12.4124 38.3914C14.1497 38.8403 15.4787 40.1393 16.7611 41.4087C28.2061 52.935 38.7022 65.3925 48.1013 78.6548C50.02 81.3384 52.5731 84.359 55.817 83.8715C57.667 83.5767 59.1769 82.1206 59.9935 80.4206C62.4604 75.3969 62.1341 70.2007 67.1764 66.5159C70.1975 64.322 81.9379 61.4913 77.8189 68.7615C76.0416 71.8742 74.2642 74.987 72.4869 78.0998C70.4205 82.5947 67.8783 87.9945 67.6547 92.8748C67.1386 104.287 69.9515 117.908 71.9063 121.821L54.8152 142.457C53.3066 142.316 50.1946 138.582 49.1028 137.63C44.8079 133.962 40.551 130.285 36.3235 126.562C28.4696 119.66 19.6103 112.903 14.5364 103.621C13.5954 101.916 12.8097 99.6572 14.083 98.2142C14.6185 97.5753 15.3616 97.3288 16.1683 97.1879L16.1133 97.1205Z" fill="#FBC0A4"/>
<path d="M58.0336 150.357L46.4259 142.255L73.7704 112.105L85.1445 126.05L58.0336 150.357Z" fill="white"/>
<path d="M123.545 215.337C114.118 228.775 117.351 247.433 130.829 256.86C144.267 266.286 162.925 263.053 172.352 249.576C181.778 236.137 178.545 217.479 165.068 208.052C151.59 198.626 132.971 201.859 123.545 215.337Z" fill="#3E3533"/>
<path d="M125.182 251.756L127.714 254.794L173.366 215.998L170.523 212.998C167.212 209.532 83.7368 112.93 83.7368 112.93L48.3682 148.337C48.3682 148.337 124.754 251.171 125.221 251.756H125.182Z" fill="#3E3533"/>
</g>
<defs>
<clipPath id="clip0_1627_766">
<rect width="554" height="401" fill="white"/>
</clipPath>
</defs>
</svg>
